<?xml version="1.0" encoding="utf-8"?>
<!-- Generator: Adobe Illustrator 24.1.1, SVG Export Plug-In . SVG Version: 6.00 Build 0)  -->
<svg version="1.1" xmlns="http://www.w3.org/2000/svg" xmlns:xlink="http://www.w3.org/1999/xlink" x="0px" y="0px"
	 viewBox="0 0 1423.1 864" style="enable-background:new 0 0 1423.1 864;" xml:space="preserve">
<style type="text/css">
	.st0{filter:url(#Adobe_OpacityMaskFilter);}
	.st1{filter:url(#Adobe_OpacityMaskFilter_1_);}
	.st2{mask:url(#XMLID_63_);fill:url(#XMLID_64_);}
	.st3{filter:url(#Adobe_OpacityMaskFilter_2_);}
	.st4{filter:url(#Adobe_OpacityMaskFilter_3_);}
	.st5{mask:url(#XMLID_65_);fill:url(#XMLID_66_);}
	.st6{fill:url(#XMLID_67_);}
	.st7{fill:url(#XMLID_68_);}
	.st8{fill:url(#SVGID_1_);}
	.st9{fill:url(#SVGID_2_);}
	.st10{fill:url(#SVGID_3_);}
	.st11{fill:url(#SVGID_4_);}
	.st12{fill:url(#SVGID_5_);}
	.st13{fill:url(#SVGID_6_);}
	.st14{fill:url(#SVGID_7_);}
	.st15{fill:url(#SVGID_8_);}
	.st16{display:none;fill:url(#SVGID_9_);}
	.st17{fill:url(#SVGID_10_);}
	.st18{fill:url(#SVGID_11_);}
	.st19{fill:url(#SVGID_12_);}
	.st20{fill:url(#SVGID_13_);}
	.st21{fill:url(#SVGID_14_);}
	.st22{fill:url(#SVGID_15_);}
	.st23{fill:url(#SVGID_16_);}
	.st24{fill:url(#SVGID_17_);}
	.st25{fill:url(#SVGID_18_);}
	.st26{fill:url(#SVGID_19_);}
	.st27{fill:url(#SVGID_20_);}
	.st28{fill:url(#SVGID_21_);}
	.st29{fill:url(#SVGID_22_);}
	.st30{fill:url(#SVGID_23_);}
	.st31{fill:url(#SVGID_24_);}
	.st32{fill:url(#SVGID_25_);}
	.st33{fill:url(#SVGID_26_);}
	.st34{display:none;}
	.st35{display:inline;opacity:0.36;fill:#C9E9FF;}
	.st36{fill:url(#SVGID_27_);}
	.st37{fill:url(#SVGID_28_);}
	.st38{fill:url(#SVGID_29_);}
	.st39{fill:url(#SVGID_30_);}
	.st40{fill:url(#SVGID_31_);}
	.st41{fill:url(#SVGID_32_);}
	.st42{fill:url(#SVGID_33_);}
	.st43{fill:url(#SVGID_34_);}
	.st44{fill:url(#SVGID_35_);}
	.st45{fill:url(#SVGID_36_);}
	.st46{fill:url(#SVGID_37_);}
	.st47{fill:url(#SVGID_38_);}
	.st48{fill:url(#SVGID_39_);}
	.st49{fill:url(#SVGID_40_);}
	.st50{filter:url(#Adobe_OpacityMaskFilter_4_);}
	.st51{filter:url(#Adobe_OpacityMaskFilter_5_);}
	.st52{mask:url(#XMLID_69_);fill:url(#XMLID_70_);}
	.st53{filter:url(#Adobe_OpacityMaskFilter_6_);}
	.st54{filter:url(#Adobe_OpacityMaskFilter_7_);}
	.st55{mask:url(#XMLID_71_);fill:url(#XMLID_72_);}
	.st56{fill:url(#XMLID_73_);}
	.st57{filter:url(#Adobe_OpacityMaskFilter_8_);}
	.st58{filter:url(#Adobe_OpacityMaskFilter_9_);}
	.st59{mask:url(#XMLID_74_);fill:url(#XMLID_75_);}
	.st60{filter:url(#Adobe_OpacityMaskFilter_10_);}
	.st61{filter:url(#Adobe_OpacityMaskFilter_11_);}
	.st62{mask:url(#XMLID_77_);fill:url(#XMLID_78_);}
	.st63{fill:url(#XMLID_79_);}
	.st64{filter:url(#Adobe_OpacityMaskFilter_12_);}
	.st65{filter:url(#Adobe_OpacityMaskFilter_13_);}
	.st66{mask:url(#XMLID_80_);fill:url(#XMLID_81_);}
	.st67{filter:url(#Adobe_OpacityMaskFilter_14_);}
	.st68{filter:url(#Adobe_OpacityMaskFilter_15_);}
	.st69{mask:url(#XMLID_82_);fill:url(#XMLID_83_);}
	.st70{fill:url(#XMLID_84_);}
	.st71{filter:url(#Adobe_OpacityMaskFilter_16_);}
	.st72{filter:url(#Adobe_OpacityMaskFilter_17_);}
	.st73{mask:url(#XMLID_85_);fill:url(#XMLID_86_);}
	.st74{filter:url(#Adobe_OpacityMaskFilter_18_);}
	.st75{filter:url(#Adobe_OpacityMaskFilter_19_);}
	.st76{mask:url(#XMLID_87_);fill:url(#XMLID_88_);}
	.st77{fill:url(#XMLID_89_);}
	.st78{filter:url(#Adobe_OpacityMaskFilter_20_);}
	.st79{filter:url(#Adobe_OpacityMaskFilter_21_);}
	.st80{mask:url(#XMLID_90_);fill:url(#XMLID_91_);}
	.st81{filter:url(#Adobe_OpacityMaskFilter_22_);}
	.st82{filter:url(#Adobe_OpacityMaskFilter_23_);}
	.st83{mask:url(#XMLID_92_);fill:url(#XMLID_93_);}
	.st84{fill:url(#XMLID_94_);}
	.st85{filter:url(#Adobe_OpacityMaskFilter_24_);}
	.st86{filter:url(#Adobe_OpacityMaskFilter_25_);}
	.st87{mask:url(#XMLID_95_);fill:url(#XMLID_96_);}
	.st88{filter:url(#Adobe_OpacityMaskFilter_26_);}
	.st89{filter:url(#Adobe_OpacityMaskFilter_27_);}
	.st90{mask:url(#XMLID_97_);fill:url(#XMLID_98_);}
	.st91{fill:url(#XMLID_99_);}
	.st92{filter:url(#Adobe_OpacityMaskFilter_28_);}
	.st93{filter:url(#Adobe_OpacityMaskFilter_29_);}
	.st94{mask:url(#XMLID_100_);fill:url(#XMLID_101_);}
	.st95{filter:url(#Adobe_OpacityMaskFilter_30_);}
	.st96{filter:url(#Adobe_OpacityMaskFilter_31_);}
	.st97{mask:url(#XMLID_102_);fill:url(#XMLID_103_);}
	.st98{fill:url(#XMLID_104_);}
	.st99{clip-path:url(#SVGID_42_);fill-rule:evenodd;clip-rule:evenodd;fill:url(#SVGID_43_);}
	.st100{display:none;opacity:0.7;clip-path:url(#SVGID_42_);}
	.st101{display:inline;}
	.st102{display:inline;fill:#595959;}
	.st103{display:none;clip-path:url(#SVGID_42_);fill-rule:evenodd;clip-rule:evenodd;fill:url(#SVGID_44_);}
	.st104{display:none;clip-path:url(#SVGID_42_);fill-rule:evenodd;clip-rule:evenodd;fill:url(#SVGID_45_);}
	.st105{display:none;clip-path:url(#SVGID_42_);fill-rule:evenodd;clip-rule:evenodd;fill:#011224;}
	.st106{display:inline;opacity:0.5;fill-rule:evenodd;clip-rule:evenodd;fill:url(#SVGID_46_);}
</style>
<g id="Layer_3">
</g>
<g id="Layer_5">
	<g id="moon">
		<defs>
			<filter id="Adobe_OpacityMaskFilter" filterUnits="userSpaceOnUse" x="513.2" y="294.3" width="225.5" height="225.5">
				<feColorMatrix  type="matrix" values="1 0 0 0 0  0 1 0 0 0  0 0 1 0 0  0 0 0 1 0"/>
			</filter>
		</defs>
		<mask maskUnits="userSpaceOnUse" x="513.2" y="294.3" width="225.5" height="225.5" id="XMLID_63_">
			<g id="XMLID_3_" class="st0">
				<defs>
					<filter id="Adobe_OpacityMaskFilter_1_" filterUnits="userSpaceOnUse" x="513.2" y="294.3" width="225.5" height="225.5">
						<feFlood  style="flood-color:white;flood-opacity:1" result="back"/>
						<feBlend  in="SourceGraphic" in2="back" mode="normal"/>
					</filter>
				</defs>
				<mask maskUnits="userSpaceOnUse" x="513.2" y="294.3" width="225.5" height="225.5" id="XMLID_63_">
					<g id="XMLID_17_" class="st1">
					</g>
				</mask>
				<radialGradient id="XMLID_64_" cx="625.9474" cy="407.0518" r="112.7457" gradientUnits="userSpaceOnUse">
					<stop  offset="0.1737" style="stop-color:#FFFFFF"/>
					<stop  offset="1" style="stop-color:#000000"/>
				</radialGradient>
				<circle id="XMLID_7_" class="st2" cx="625.9" cy="407.1" r="112.7"/>
			</g>
		</mask>
		<g id="XMLID_640_">
			<defs>
				<filter id="Adobe_OpacityMaskFilter_2_" filterUnits="userSpaceOnUse" x="513.2" y="294.3" width="225.5" height="225.5">
					<feFlood  style="flood-color:white;flood-opacity:1" result="back"/>
					<feBlend  in="SourceGraphic" in2="back" mode="normal"/>
				</filter>
			</defs>
			<mask maskUnits="userSpaceOnUse" x="513.2" y="294.3" width="225.5" height="225.5" id="XMLID_65_">
				<g id="XMLID_10_" class="st3">
					<defs>
						<filter id="Adobe_OpacityMaskFilter_3_" filterUnits="userSpaceOnUse" x="513.2" y="294.3" width="225.5" height="225.5">
							<feFlood  style="flood-color:white;flood-opacity:1" result="back"/>
							<feBlend  in="SourceGraphic" in2="back" mode="normal"/>
						</filter>
					</defs>
					<mask maskUnits="userSpaceOnUse" x="513.2" y="294.3" width="225.5" height="225.5" id="XMLID_65_">
						<g id="XMLID_21_" class="st4">
						</g>
					</mask>
					<radialGradient id="XMLID_66_" cx="625.9474" cy="407.0518" r="112.7457" gradientUnits="userSpaceOnUse">
						<stop  offset="0.1737" style="stop-color:#FFFFFF"/>
						<stop  offset="1" style="stop-color:#000000"/>
					</radialGradient>
					<circle id="XMLID_13_" class="st5" cx="625.9" cy="407.1" r="112.7"/>
				</g>
			</mask>
			<radialGradient id="XMLID_67_" cx="625.9474" cy="407.0518" r="112.7457" gradientUnits="userSpaceOnUse">
				<stop  offset="0.1737" style="stop-color:#F29727"/>
				<stop  offset="1" style="stop-color:#F29727"/>
			</radialGradient>
			<circle id="XMLID_2630_" class="st6" cx="625.9" cy="407.1" r="112.7"/>
		</g>
		<radialGradient id="XMLID_68_" cx="625.9475" cy="407.0518" r="59.0862" gradientUnits="userSpaceOnUse">
			<stop  offset="0.1737" style="stop-color:#F29727"/>
			<stop  offset="1" style="stop-color:#F2BE22"/>
		</radialGradient>
		<circle id="XMLID_1093_" class="st7" cx="625.9" cy="407.1" r="59.1"/>
	</g>
	
		<linearGradient id="SVGID_1_" gradientUnits="userSpaceOnUse" x1="944.0401" y1="638.3734" x2="959.3182" y2="638.3734" gradientTransform="matrix(0.7071 -0.7071 0.7071 0.7071 -174.6498 859.0889)">
		<stop  offset="0" style="stop-color:#5A2F0E"/>
		<stop  offset="0.45" style="stop-color:#AE6F28"/>
		<stop  offset="1" style="stop-color:#EFC96D"/>
	</linearGradient>
	<polygon class="st8" points="949.7,648.4 960.5,637.5 949.7,626.7 938.9,637.5 	"/>
</g>
<g id="Layer_1">
	<g>
		<linearGradient id="SVGID_2_" gradientUnits="userSpaceOnUse" x1="899.8171" y1="519.95" x2="1020.9108" y2="519.95">
			<stop  offset="0" style="stop-color:#5A2F0E"/>
			<stop  offset="0.45" style="stop-color:#AE6F28"/>
			<stop  offset="1" style="stop-color:#EFC96D"/>
		</linearGradient>
		<path class="st9" d="M940.7,693.7c-2.4-0.5-4.9-0.9-7.3-1.5c-19.1-4.4-30.2-18.4-31.7-40.2c-1.4-20.5,0.7-30.7,11.2-54
			c-1.1-0.6-2.4-1.4-3.4-2c0.5-1,0.6-1.6,0.7-1.6c5.2,0.7,7.3-2.9,9.9-6.4c7.8-10.6,17.8-18.8,29-25.6c1.4-0.8,2.8-1.7,5.2-3.2
			c-2.3-0.2-3.5-0.3-4.7-0.3c-15.1-0.3-30.3-0.7-45.4-1c-4.9-0.1-4.9-0.9-3.8-5.8c1.9-9,7.7-13.9,15.7-17.1
			c19.3-7.7,38.6-15.4,57.9-23.1c1.1-0.4,2.1-0.8,3.2-2c-19.5-1.5-38.9-2.9-58.5-4.4c1.3-8.7,4.5-13.9,13-15.7
			c7.9-1.7,15.6-4.7,23.3-7.2c3.9-1.3,5.9-3.7,5.7-8.2c-0.9-19.8-1.6-39.6-2.5-59.3c-0.7-14.6-1.7-29.2-2.6-43.9
			c-0.1-1.8,0.1-3.8-0.6-5.4c-3.2-7.4,0.2-13.5,3.8-20c5.5,11.2,10,22.7,13.4,34.6c-0.5,0.3-1,0.6-1.5,0.9c-1.9-1.5-3.7-2.9-6.3-4.9
			c0.6,8.6,1.2,16.4,1.7,24.3c0.9,16.4,2.1,32.9,2.6,49.4c0.4,15,0.2,30.1-10.3,43.4c13.3,0.9,25.7,1.7,38.5,2.5
			c0.1-1.5,0.3-2.8,0.2-4c-1.1-17.8-1.9-35.6-3.3-53.3c-0.6-6.9-3-13.7,0.9-20.3c0.6-1.1,1.2-2.2,2.4-4.4
			c5.4,12.3,10.5,23.5,13.3,35.6c-0.4,0.3-0.9,0.6-1.3,0.9c-1.9-1.4-3.8-2.8-6.5-4.8c1.3,17.3,2.6,34,3.8,50.9
			c4.9,0.4,9.3,0.8,14.5,1.3c-1.7,4.7-3,8.8-4.7,12.7c-0.5,1-2.3,2-3.5,2.1c-4.7,0.1-5.2,2.6-4.8,6.5c1.3,14.8,2.4,29.5,3.2,44.3
			c0.8,14.1-0.9,27.9-7.1,40.9c13.6,17.5,14.4,35.5,1.6,54.8c-12.2,18.3-28.3,31.2-50.9,34.3c-0.6,0.1-1.3,0.4-1.9,0.6
			C948.7,693.7,944.7,693.7,940.7,693.7z M919,601.2c-7.4,12.6-12,25.1-12.1,38.9c-0.1,17.5,7.7,29.2,22.1,34.3
			c26.7,9.4,65.4-5.5,79-30.3c2.8-5.2,3.6-10.4,0.6-15.7c-4-7.2-9.9-12.2-18.1-13.6c-5.5-1-11.2-1.7-16.8-1.8
			C954.8,612.7,936.1,611.8,919,601.2z M923.8,593.9c0.3,0.6,0.6,1.1,1,1.7c25.4,3.7,51.5,0.7,77.1,7.2c0-16.3,0-32.5,0-47.9
			c-3.8,1.8-7,4-10.4,4.9c-16.2,4.2-31.8,9.9-46.1,18.5C937.8,582.8,931,588.6,923.8,593.9z M998.7,515.6
			c-21.8,8.6-42.7,16.9-63.7,25.2c0.1,0.6,0.3,1.2,0.4,1.8c21.6,0,43.3,0,65.3,0C1000,533.8,999.4,525.4,998.7,515.6z"/>
		<linearGradient id="SVGID_3_" gradientUnits="userSpaceOnUse" x1="926.5107" y1="335.55" x2="992.3107" y2="335.55">
			<stop  offset="0" style="stop-color:#5A2F0E"/>
			<stop  offset="0.45" style="stop-color:#AE6F28"/>
			<stop  offset="1" style="stop-color:#EFC96D"/>
		</linearGradient>
		<path class="st10" d="M926.5,350.5c0.4-4.5,2.1-7,6.2-8.4c19.5-7,38.9-14.3,58.4-21.5c0.4,0.4,0.8,0.8,1.2,1.1
			c-1.5,1.7-2.6,4.3-4.5,5C967.7,334.7,947.3,342.5,926.5,350.5z"/>
		<linearGradient id="SVGID_4_" gradientUnits="userSpaceOnUse" x1="882.8107" y1="430.45" x2="948.7107" y2="430.45">
			<stop  offset="0" style="stop-color:#5A2F0E"/>
			<stop  offset="0.45" style="stop-color:#AE6F28"/>
			<stop  offset="1" style="stop-color:#EFC96D"/>
		</linearGradient>
		<path class="st11" d="M948.7,416.8c-1.5,1.7-2.8,4.1-4.7,4.8c-20.2,8-40.5,15.8-61.2,23.7c0.1-3.9,1.2-6.6,5.2-8
			c19.2-7,38.3-14.2,57.5-21.3c0.6-0.2,1.3-0.3,1.9-0.4C947.9,416.1,948.3,416.4,948.7,416.8z"/>
		<linearGradient id="SVGID_5_" gradientUnits="userSpaceOnUse" x1="885.4107" y1="508.519" x2="917.2107" y2="508.519">
			<stop  offset="0" style="stop-color:#5A2F0E"/>
			<stop  offset="0.45" style="stop-color:#AE6F28"/>
			<stop  offset="1" style="stop-color:#EFC96D"/>
		</linearGradient>
		<path class="st12" d="M917.2,517.1c-7.2,7.4-15,9.8-23.5,9.3c-6.3-0.4-9.3-4.9-7-10.8c1.5-3.7,4.3-7,6.7-10.3
			c1.9-2.5,4.2-4.6,7.5-8.1c-5.6-0.3-9.8-0.4-15.5-0.7c2.7-2.4,4.7-5.4,7.1-5.8c3.7-0.5,7.7,0.6,11.4,1.5c0.6,0.2,1,3.9,0.2,5.3
			c-1.7,3-4.1,5.6-6.3,8.3c-2.3,2.6-5,4.9-7.2,7.7c-2.5,3.2-1.6,6.1,2.5,6.3c6.1,0.2,12.2-0.7,18.3-1.3
			C912.9,518.2,914.4,517.7,917.2,517.1z"/>
		<linearGradient id="SVGID_6_" gradientUnits="userSpaceOnUse" x1="909.9107" y1="452.1749" x2="936.5135" y2="452.1749">
			<stop  offset="0" style="stop-color:#5A2F0E"/>
			<stop  offset="0.45" style="stop-color:#AE6F28"/>
			<stop  offset="1" style="stop-color:#EFC96D"/>
		</linearGradient>
		<path class="st13" d="M924.2,460.9c0,0-0.3,1.2-1,1.6c-2.3,1.3-5,3.4-7.1,3c-1.8-0.3-3.5-3.6-4.2-5.9c-1.2-3.6-2-7.5-2-11.3
			c0-2.1,1.8-4.2,2.8-6.3c0.6,0.2,1.2,0.4,1.8,0.6c0,3.2-0.1,6.4,0,9.6c0.1,3-0.2,6.4,3.9,7c3,0.4,5.6-4,5-7.9
			c-1.2-9.1-1.2-9.1,1.2-12.3c0.8,4.1,1.5,7.6,2.3,11.1c0.4,1.9,0.4,4.2,1.5,5.6c0.8,1.1,3.1,1.1,4.7,1.6c0-1.4,0.5-3,0-4.2
			c-1.9-4.6-4.5-9,0.3-14.3c1.1,6.3,2.7,12.5,3.1,18.9c0.1,2.1-2.4,5.5-4.5,6.3C930.1,464.6,927.3,462.2,924.2,460.9z"/>
		<linearGradient id="SVGID_7_" gradientUnits="userSpaceOnUse" x1="984.7232" y1="367.4488" x2="997.3107" y2="367.4488">
			<stop  offset="0" style="stop-color:#5A2F0E"/>
			<stop  offset="0.45" style="stop-color:#AE6F28"/>
			<stop  offset="1" style="stop-color:#EFC96D"/>
		</linearGradient>
		<path class="st14" d="M997.3,371c-1,3.4-1.3,5.3-2.1,7.1c-1.1,2.8-2.3,6-6.2,5.3c-3.7-0.6-4.6-3.9-4.2-6.9
			c0.7-5.9,1.8-11.7,3.2-17.5c0.7-2.8,2.4-5.3,4.3-7.6c-1.3,5.1-2.6,10.2-3.9,15.3c-0.3,1.1-0.8,2.4-0.5,3.4
			c0.6,2.1,1.6,4.2,2.4,6.2c1.6-1.1,3.2-2.2,4.8-3.3C995.5,372.7,995.9,372.4,997.3,371z"/>
		<linearGradient id="SVGID_8_" gradientUnits="userSpaceOnUse" x1="855.6107" y1="661.9999" x2="855.8311" y2="661.9999">
			<stop  offset="0" style="stop-color:#5A2F0E"/>
			<stop  offset="0.45" style="stop-color:#AE6F28"/>
			<stop  offset="1" style="stop-color:#EFC96D"/>
		</linearGradient>
		<path class="st15" d="M855.6,661.6c0,0,0.3,0.4,0.2,0.8"/>
		<linearGradient id="SVGID_9_" gradientUnits="userSpaceOnUse" x1="948.3107" y1="634.9999" x2="966.6107" y2="634.9999">
			<stop  offset="0" style="stop-color:#5A2F0E"/>
			<stop  offset="0.45" style="stop-color:#AE6F28"/>
			<stop  offset="1" style="stop-color:#EFC96D"/>
		</linearGradient>
		<path class="st16" d="M961.9,646c-4.7-3.3-9-6.3-13.6-9.4c1.9-4.1,3.8-7.9,6.1-12.6c4.4,3,8.4,5.7,12.2,8.7"/>
	</g>
	
		<linearGradient id="SVGID_10_" gradientUnits="userSpaceOnUse" x1="279.7971" y1="494.0521" x2="346.9391" y2="494.0521" gradientTransform="matrix(1.3329 -0.3883 0.3128 1.3316 -245.8242 -60.4746)">
		<stop  offset="0" style="stop-color:#AA6405"/>
		<stop  offset="0.5058" style="stop-color:#FED05E"/>
		<stop  offset="1" style="stop-color:#C38722"/>
	</linearGradient>
	<path class="st17" d="M366,440.7L366,440.7c-3.4-2.7-8-3.2-12.1-1.4l-42.1,18c-2.9,1.3-6.2,0.9-8.6-1l-13.3-10.2
		c-3.3-2.5-7.2-4.3-11.3-5l-2.7-0.5c-2.2-0.4-4,1.9-3.1,3.9l1.1,2.5c1.7,3.8,4.3,7.2,7.6,9.8l13.1,10.5c2.4,1.9,3.5,5,3,8.1
		l-7.5,45.2c-0.7,4.4,0.9,8.8,4.3,11.4l0,0c3.7-19.3,13.2-39.6,17.3-47.9c0.6-1.1,2-1.5,2.9-0.7l0,0l-1.6,3.5
		c-0.8,1.7-0.1,3.6,1.4,4.5l4.2,2.2c0.6,0.3,1.2,0.4,1.9,0.3l0,0c0.7-0.1,1.4,0,2,0.3l1.5,0.8l-1.3-1.4c-0.4-0.4-0.6-1-0.7-1.6
		l-0.1-1l-0.2-1.7l2.8,2.2c1.8,1.4,3.7,2.6,5.8,3.5l10.6,4.6l-4.3,12.7c-0.9,2.7,0.1,5.6,2.5,7l3.6,2.1l6.2-18.5l2.9,1.3
		c0.5,0.2,1-0.4,0.6-0.8l-1.9-2.6l16.4-10.4l-2.9-3c-1.9-2-5-2.3-7.4-0.7l-11.4,7.2l-6.9-9.1c-1.4-1.8-3-3.5-4.8-4.8l-2.8-2.2
		l1.6-0.2l1-0.2c0.6-0.1,1.2,0,1.7,0.3l1.7,0.9l-1.2-1.3c-0.5-0.5-0.7-1.1-0.7-1.8l0,0c0-0.7-0.3-1.3-0.7-1.8l-3.1-3.6
		c-1.2-1.3-3.2-1.5-4.7-0.3l-3,2.4l0,0c-1-0.7-0.9-2.2,0-3C330.7,462.9,348.2,448.9,366,440.7z"/>
	<g>
		<linearGradient id="SVGID_11_" gradientUnits="userSpaceOnUse" x1="340.1982" y1="548.736" x2="918.0958" y2="548.736">
			<stop  offset="0" style="stop-color:#5A2F0E"/>
			<stop  offset="0.45" style="stop-color:#AE6F28"/>
			<stop  offset="1" style="stop-color:#EFC96D"/>
		</linearGradient>
		<path class="st18" d="M912.4,598.7c-10.3-6.8-20.8-13.1-31.6-18.9c-10.8-5.8-21.9-11.1-33.2-15.8c-22.6-9.3-46.2-16.3-70.2-20.2
			c-12-2.1-24.1-3.3-36.2-4c-1.5-0.1-3-0.1-4.5-0.1l-4.5-0.1l-4.5-0.1c-0.8,0-1.5,0-2.3,0l-2.3,0.1l-9.1,0.3l-2.3,0.1l-2.3,0.2
			l-4.5,0.4c-24.1,1.8-48.1,6.7-72.5,11c-24.4,4.3-49.3,8.1-74.6,9l-9.5,0.2l-4.7,0.1c-1.6,0-3.2,0-4.7,0c-3.2-0.1-6.3-0.1-9.5-0.3
			c-3.1-0.2-6.3-0.2-9.4-0.5c-3.1-0.3-6.3-0.5-9.4-0.8c-3.1-0.4-6.3-0.6-9.4-1.1l-9.4-1.4c-3.1-0.5-6.2-1.1-9.3-1.6
			c-12.4-2.4-24.7-5.1-36.7-8.7c-1.5-0.4-3-0.9-4.5-1.3l-4.5-1.4c-3-1-6-1.9-8.9-2.9c-5.9-2.1-11.8-4.1-17.6-6.5
			c-23.2-9.3-45.6-20.4-66.6-33.8l0.8-1.6c23.2,8.7,46.3,16.8,69.8,23.4l4.4,1.3c1.5,0.4,2.9,0.8,4.4,1.1l8.8,2.3l8.9,2.1l4.4,1.1
			c1.5,0.3,3,0.6,4.5,0.9l8.9,1.9l8.9,1.6c3,0.6,6,1,8.9,1.5c3,0.5,6,1,9,1.4c11.9,1.7,23.9,3.1,36,3.9c6,0.4,12,0.9,18,1.1
			c3,0.2,6,0.2,9,0.2l9,0.2c24.1,0.3,48.3-2,72.6-5.4l18.3-2.7l9.2-1.3l9.2-1.3c3.1-0.4,6.2-0.8,9.3-1.1c3.1-0.3,6.2-0.8,9.3-1
			c6.2-0.5,12.5-1.1,18.8-1.3l4.7-0.2l2.4-0.1l2.4,0l9.4,0l2.4,0c0.8,0,1.6,0.1,2.4,0.1l4.7,0.3l4.7,0.3c1.6,0.1,3.1,0.1,4.7,0.3
			c12.5,1.2,24.9,3,37.2,5.6c24.5,5.2,48.2,13.5,70.7,24c11.3,5.3,22.2,11.1,32.8,17.6c10.6,6.4,20.8,13.4,30.8,20.8L912.4,598.7z"
			/>
	</g>
	<g>
		<linearGradient id="SVGID_12_" gradientUnits="userSpaceOnUse" x1="444.0763" y1="231.261" x2="811.9483" y2="231.261">
			<stop  offset="0" style="stop-color:#2E3D4C"/>
			<stop  offset="1" style="stop-color:#030407"/>
		</linearGradient>
		<path class="st19" d="M455.7,264.5l171.1-36.9c12.6-2.7,25.7-2.7,38.3,0.1l144.1,30.7c6,1.3,0-3.2,0-9.4v-2.9c0-4.4,4.3-8.3,0-9.3
			l-147.7-37c-10.3-2.6-21-2.6-31.2,0.1l-179,46c-4.3,1.1-7.2,4.9-7.2,9.3v0C444.1,261.2,449.7,265.8,455.7,264.5z"/>
		<linearGradient id="SVGID_13_" gradientUnits="userSpaceOnUse" x1="444.0763" y1="294.6906" x2="811.9483" y2="294.6906">
			<stop  offset="0" style="stop-color:#2E3D4C"/>
			<stop  offset="1" style="stop-color:#030407"/>
		</linearGradient>
		<path class="st20" d="M455.7,327.9L626.8,291c12.6-2.7,25.7-2.7,38.3,0.1l144.1,30.7c6,1.3,0-3.2,0-9.4v-2.9c0-4.4,4.3-8.3,0-9.3
			l-147.7-37c-10.3-2.6-21-2.6-31.2,0.1l-179,46c-4.3,1.1-7.2,4.9-7.2,9.3v0C444.1,324.6,449.7,329.2,455.7,327.9z"/>
		<linearGradient id="SVGID_14_" gradientUnits="userSpaceOnUse" x1="444.0763" y1="466.7509" x2="815.8016" y2="466.7509">
			<stop  offset="0" style="stop-color:#2E3D4C"/>
			<stop  offset="1" style="stop-color:#030407"/>
		</linearGradient>
		<path class="st21" d="M450,479.9l196.4,4.7c0.1,0,0.2,0,0.4,0l163.2-6.1c3.2-0.1,5.8-2.8,5.8-6v-5.6c0-3.2-2.4-5.8-5.6-6
			l-163.3-12c-0.3,0-0.6,0-0.8,0l-196.3,12.5c-3.2,0.2-5.7,2.8-5.7,6v6.5C444.1,477.2,446.7,479.8,450,479.9z"/>
		<linearGradient id="SVGID_15_" gradientUnits="userSpaceOnUse" x1="444.0763" y1="504.3102" x2="815.8016" y2="504.3102">
			<stop  offset="0" style="stop-color:#2E3D4C"/>
			<stop  offset="1" style="stop-color:#030407"/>
		</linearGradient>
		<path class="st22" d="M815.8,500.8v-13.1c0-3.4-2.9-6.2-6.3-6L646,489.1c-0.2,0-0.3,0-0.5,0l-195.2-6c-3.4-0.1-6.2,2.6-6.2,6v6.7
			c0,3,2.3,5.6,5.3,6L645.9,527c0.5,0.1,1,0.1,1.5,0l163.1-20.2C813.5,506.4,815.8,503.8,815.8,500.8z"/>
		<g>
			
				<linearGradient id="SVGID_16_" gradientUnits="userSpaceOnUse" x1="508.4656" y1="300.3536" x2="538.1381" y2="300.3536" gradientTransform="matrix(0.9999 -1.084658e-02 1.084658e-02 0.9999 -3.1311 6.8476)">
				<stop  offset="0" style="stop-color:#AA6405"/>
				<stop  offset="0.7159" style="stop-color:#FED05E"/>
				<stop  offset="1" style="stop-color:#C38722"/>
			</linearGradient>
			<path class="st23" d="M508.6,301.4l0.1,4.7c0,3.1,2.8,5.4,5.8,4.8l19.8-3.7c2.4-0.4,4.1-2.5,4-4.9l-0.1-5.2c0-3.1-2.9-5.4-6-4.8
				l-19.8,4.3C510.2,297,508.5,299,508.6,301.4z"/>
			
				<linearGradient id="SVGID_17_" gradientUnits="userSpaceOnUse" x1="772.2501" y1="306.0059" x2="786.6647" y2="306.0059" gradientTransform="matrix(0.9999 -1.084658e-02 1.084658e-02 0.9999 -3.1311 6.8476)">
				<stop  offset="0" style="stop-color:#AA6405"/>
				<stop  offset="0.7159" style="stop-color:#FED05E"/>
				<stop  offset="1" style="stop-color:#C38722"/>
			</linearGradient>
			<path class="st24" d="M782.9,297.4l-4.6-0.9c-3.1-0.6-6,1.7-5.9,4.9l0.1,5.3c0,2.4,1.7,4.4,4,4.8l4.6,0.8
				c3.1,0.6,5.9-1.8,5.8-4.9l-0.1-5.2C786.8,299.9,785.1,297.9,782.9,297.4z"/>
			
				<linearGradient id="SVGID_18_" gradientUnits="userSpaceOnUse" x1="705.8621" y1="294.155" x2="749.7349" y2="294.155" gradientTransform="matrix(0.9999 -1.084658e-02 1.084658e-02 0.9999 -3.1311 6.8476)">
				<stop  offset="0" style="stop-color:#AA6405"/>
				<stop  offset="0.7159" style="stop-color:#FED05E"/>
				<stop  offset="1" style="stop-color:#C38722"/>
			</linearGradient>
			<path class="st25" d="M705.8,286.8l0.3,6.8c0.1,2.3,1.8,4.2,4,4.6l33.9,6.2c3.1,0.6,5.9-1.8,5.8-4.9l-0.1-5.9
				c0-2.3-1.7-4.3-3.9-4.8l-34.1-7C708.6,281.1,705.7,283.6,705.8,286.8z"/>
			
				<linearGradient id="SVGID_19_" gradientUnits="userSpaceOnUse" x1="562.2579" y1="288.4275" x2="599.3489" y2="288.4275" gradientTransform="matrix(0.9999 -1.084658e-02 1.084658e-02 0.9999 -3.1311 6.8476)">
				<stop  offset="0" style="stop-color:#AA6405"/>
				<stop  offset="0.7159" style="stop-color:#FED05E"/>
				<stop  offset="1" style="stop-color:#C38722"/>
			</linearGradient>
			<path class="st26" d="M562.2,288.8l0.1,6.2c0,3.1,2.8,5.4,5.8,4.8l27.2-5c2.4-0.4,4.1-2.5,4-4.9l-0.1-7c0-3.1-2.9-5.4-6-4.8
				l-27.2,5.8C563.8,284.4,562.2,286.5,562.2,288.8z"/>
			
				<linearGradient id="SVGID_20_" gradientUnits="userSpaceOnUse" x1="473.3282" y1="309.2565" x2="484.3096" y2="309.2565" gradientTransform="matrix(0.9999 -1.084658e-02 1.084658e-02 0.9999 -3.1311 6.8476)">
				<stop  offset="0" style="stop-color:#AA6405"/>
				<stop  offset="0.7159" style="stop-color:#FED05E"/>
				<stop  offset="1" style="stop-color:#C38722"/>
			</linearGradient>
			<path class="st27" d="M474.6,308.9l-1,3.8c0,2.1-1.5,6.3,6.8,4.8l0,0c2.4-0.4,4.1-2.5,4-4.9l0-3.8c0-3.1-2.9-5.4-6-4.8l0,0
				C476.2,304.6,474.6,306.6,474.6,308.9z"/>
			
				<linearGradient id="SVGID_21_" gradientUnits="userSpaceOnUse" x1="633.0787" y1="278.7524" x2="677.7559" y2="278.7524" gradientTransform="matrix(0.9999 -1.084658e-02 1.084658e-02 0.9999 -3.1311 6.8476)">
				<stop  offset="0" style="stop-color:#AA6405"/>
				<stop  offset="0.7159" style="stop-color:#FED05E"/>
				<stop  offset="1" style="stop-color:#C38722"/>
			</linearGradient>
			<path class="st28" d="M641.6,266.7l-4.8,1c-2.3,0.5-3.9,2.5-3.9,4.9l0.1,8.3c0,3.1,2.8,5.4,5.8,4.8l3.4-0.6
				c0.6-0.1,1.2-0.1,1.8,0l27.9,5.1c3.1,0.6,5.9-1.8,5.8-4.9l-0.1-7.6c0-2.3-1.7-4.3-3.9-4.8l-30.1-6.2
				C642.9,266.6,642.2,266.6,641.6,266.7z"/>
		</g>
		<g>
			
				<linearGradient id="SVGID_22_" gradientUnits="userSpaceOnUse" x1="491.9676" y1="305.9881" x2="503.5141" y2="305.9881" gradientTransform="matrix(0.9999 -1.084658e-02 1.084658e-02 0.9999 -3.1311 6.8476)">
				<stop  offset="0" style="stop-color:#AA6405"/>
				<stop  offset="0.7159" style="stop-color:#FED05E"/>
				<stop  offset="1" style="stop-color:#C38722"/>
			</linearGradient>
			<path class="st29" d="M503.6,306.8c0.3,2.6-2,5-5.2,5.3c-3.2,0.3-6-1.5-6.3-4.2c-0.3-2.6,2-5,5.2-5.3
				C500.5,302.4,503.3,304.2,503.6,306.8z"/>
			
				<linearGradient id="SVGID_23_" gradientUnits="userSpaceOnUse" x1="543.8686" y1="295.7289" x2="556.1129" y2="295.7289" gradientTransform="matrix(0.9999 -1.084658e-02 1.084658e-02 0.9999 -3.1311 6.8476)">
				<stop  offset="0" style="stop-color:#AA6405"/>
				<stop  offset="0.7159" style="stop-color:#FED05E"/>
				<stop  offset="1" style="stop-color:#C38722"/>
			</linearGradient>
			<path class="st30" d="M556,295.2c0.8,2.7-1.3,5.5-4.6,6.3c-3.3,0.8-6.6-0.8-7.3-3.5c-0.8-2.7,1.3-5.5,4.6-6.3
				C551.9,290.9,555.2,292.5,556,295.2z"/>
			
				<linearGradient id="SVGID_24_" gradientUnits="userSpaceOnUse" x1="610.5908" y1="283.1968" x2="624.4691" y2="283.1968" gradientTransform="matrix(0.9999 -1.084658e-02 1.084658e-02 0.9999 -3.1311 6.8476)">
				<stop  offset="0" style="stop-color:#AA6405"/>
				<stop  offset="0.7159" style="stop-color:#FED05E"/>
				<stop  offset="1" style="stop-color:#C38722"/>
			</linearGradient>
			<path class="st31" d="M624.4,283.3c0,3.2-3,5.7-6.9,5.8s-7-2.5-7-5.6c0-3.2,3-5.7,6.9-5.8S624.3,280.1,624.4,283.3z"/>
			
				<linearGradient id="SVGID_25_" gradientUnits="userSpaceOnUse" x1="685.6302" y1="288.1678" x2="699.4224" y2="288.1678" gradientTransform="matrix(0.9999 -1.084658e-02 1.084658e-02 0.9999 -3.1311 6.8476)">
				<stop  offset="0" style="stop-color:#AA6405"/>
				<stop  offset="0.7159" style="stop-color:#FED05E"/>
				<stop  offset="1" style="stop-color:#C38722"/>
			</linearGradient>
			<path class="st32" d="M685.8,285.8c-0.9,3,1.3,6.2,5,7.2s7.4-0.8,8.4-3.8c0.9-3-1.3-6.2-5-7.2
				C690.5,281.1,686.7,282.8,685.8,285.8z"/>
			
				<linearGradient id="SVGID_26_" gradientUnits="userSpaceOnUse" x1="753.2938" y1="301.0363" x2="764.8403" y2="301.0363" gradientTransform="matrix(0.9999 -1.084658e-02 1.084658e-02 0.9999 -3.1311 6.8476)">
				<stop  offset="0" style="stop-color:#AA6405"/>
				<stop  offset="0.7159" style="stop-color:#FED05E"/>
				<stop  offset="1" style="stop-color:#C38722"/>
			</linearGradient>
			<path class="st33" d="M753.4,299.2c-0.3,2.6,2.1,4.9,5.3,5.2c3.2,0.2,6-1.7,6.2-4.3c0.3-2.6-2.1-4.9-5.3-5.2
				C756.4,294.7,753.7,296.6,753.4,299.2z"/>
		</g>
		<g class="st34">
			<path class="st35" d="M811.7,224.9l-158-53.7c-3.9-1.3-8,1.6-8,5.7l0.9,343.3c0,3.6,3.2,6.4,6.8,6l157.1-19.4
				c3-0.4,5.3-2.9,5.3-6V230.6C815.8,228.1,814.2,225.8,811.7,224.9z"/>
		</g>
	</g>
</g>
<g id="Layer_8">
</g>
<g id="Layer_2">
	<linearGradient id="SVGID_27_" gradientUnits="userSpaceOnUse" x1="425.4785" y1="432.2661" x2="737.5759" y2="432.2661">
		<stop  offset="0" style="stop-color:#AA6405"/>
		<stop  offset="0.5058" style="stop-color:#FED05E"/>
		<stop  offset="1" style="stop-color:#C38722"/>
	</linearGradient>
	<path class="st36" d="M524.7,379.2c-1.2-1.3-2.3-2.8-3.1-4.4c-1.7-3.1-5.5-4.2-8.8-3c-3.9,1.1-6,5.2-4.9,9.1
		c0.5,1.8,0.8,3.7,0.8,5.5c0.1,0,0.2-0.1,0.3-0.1l19.2,89.7c0.2,0.7-0.3,1.4-1,1.7c-0.7,0.3-1.5,0.1-1.9-0.5
		c-17.6-26.4-35.1-52.7-53.3-80.1c0.1,0,0.2-0.1,0.3-0.1c-1.6-1.8-2.5-4.3-3.4-6.9c-1.4-1.9-2.4-4.4-3-7.2c-2-1.9-2.4-7.8-6.1-8.7
		c-5.4-1.1-10.9-1.7-17.2-2.5c-1-0.1-1.8,0.7-1.7,1.7c0.8,6.6,1.5,12.3,2.3,18.7c-0.1,0-0.2,0.1-0.3,0.1c2,4.3,1.2,9,1.9,13.4
		c0.1,0,0.3,0,0.4-0.1c2.6,17.2,5,33.8,7.6,51.6c0.2,1.2-1,2.1-2.1,1.6c-8-3.5-16-5.1-23.9-5.4c-0.9,0-1.6,0.7-1.5,1.6
		c0.3,3.6,3,6.4,6.5,7.1c3,0.6,5.3,2.6,7.2,5.8c5.8,10,12.2,19.8,17,30.3c4.8,10.8,12.5,13.9,24.1,13.5c0.9,0,1.5-0.8,1.4-1.7
		c-3.5-25.5-7-50.8-10.4-76.2c-0.2-1.8,2.2-2.6,3.1-1.1l49.4,73.7c6.8,10.2,15.4,16.8,28.5,16.8c7.1,0.1,8.3-0.2,6.9-7
		c-4-22-8.6-43.2-12.3-65.3c-0.2-1.4,1.5-2.3,2.5-1.3c13.9,14.7,28.3,27.1,46.9,35.4c5.4,2.4,10.7,4.2,11.7,10.8
		c0.1,0.7,0.6,1.2,1.2,1.3c3,0.4,1.4-5.2,4.5-4.7c67.3,16.3,140.6-6.8,120.6-84.4c-12.6-34.2-39.9-56.6-73.9-66.4
		c-1-0.3-2,0.6-1.9,1.7c0.5,4.3,2.9,8.1,6.6,10.3c30.6,18.6,53.2,59.4,48.8,93.3c-4.6,44.8-63,49.8-98.9,35.7c0,0,0-0.1,0-0.1
		c-3.8-0.6-7.4-2.6-9.6-6.3l0,0c-1.1,1.1-2.9,1.2-4.1,0.2c-8.8-7.7-19.1-12.9-26.2-23.7c-11.6-17.8-24.4-34.7-36.2-52.3
		c-5.6-8.3-10.2-15.1-13.2-19.4l0.2,0C525.6,380.3,525.2,379.8,524.7,379.2z"/>
	<g>
		<linearGradient id="SVGID_28_" gradientUnits="userSpaceOnUse" x1="723.0766" y1="412.1966" x2="855.7721" y2="412.1966">
			<stop  offset="0" style="stop-color:#AA6405"/>
			<stop  offset="0.5058" style="stop-color:#FED05E"/>
			<stop  offset="1" style="stop-color:#C38722"/>
		</linearGradient>
		<path class="st37" d="M732.6,397.3l10-21.8c11.3-10.4,23.2-18,35.7-22.9c12.5-4.9,23.4-7.7,32.7-8.6c7.4-0.7,14.7,0.3,21.8,2.9
			c7.2,2.6,12.8,6.2,16.6,10.8c3.8,4.7,5.9,9.1,6.3,13.2c0.4,4.6-0.9,10.4-4.1,17.2c-3.2,6.9-10.4,14-21.4,21.4
			c-11.2,7.5-25.3,13.3-42.5,17.6c15.4,7.4,27.6,15.7,36.5,25.1c-0.7,3.5-3.2,13-7.6,28.7c-3.9-3-8.1-6.1-12.5-9.3
			c-4.4-3.2-9-6.4-13.6-9.6c-4.7-3.2-12.7-8.6-24-16.2c-10.2,17.6-18.6,26.7-25.3,27.3c-3.8,0.3-8.1-1.7-13.1-6.2
			c-1.4-1.3-3.1-2.5-5.1-3.7c0.8-2.2,2.2-5.6,4.2-10c1.6-3.6,2.8-6.6,3.7-9l20.7,8.4c3.5-4.9,8-11.8,13.4-20.8
			c4.9-8.1,10.2-17.5,15.8-28.2l17.2-33l-5.4,0.3c-4.6,0.4-9.3,1.3-14.2,2.7c-4.8,1.4-9.9,3.2-15.1,5.4
			C752.9,383.3,742.6,389.5,732.6,397.3z M815,371.9c-7.4,9-18.4,25-32.8,47.7c15.4-3.1,30.9-15.1,46.6-36.1
			C825.9,378.2,821.3,374.3,815,371.9z"/>
	</g>
	<g>
		<linearGradient id="SVGID_29_" gradientUnits="userSpaceOnUse" x1="457.2964" y1="617.0663" x2="508.976" y2="617.0663">
			<stop  offset="0" style="stop-color:#2E3D4C"/>
			<stop  offset="1" style="stop-color:#030407"/>
		</linearGradient>
		<path class="st38" d="M489.9,624.2h-16.3l-3.9,10c-0.7,1.9-1,3.2-1,3.7c0,0.8,0.4,1.4,1.3,1.7c0.8,0.3,2.3,0.6,4.5,0.7l-0.2,1.9
			c-1.3,0-2.7,0-4.3-0.1c-1.6,0-3.2-0.1-4.8-0.1c-1.3,0-2.6,0-3.9,0.1c-1.4,0-2.7,0.1-3.9,0.1l-0.1-1.8c1.3-0.1,2.4-0.3,3.3-0.5
			c0.9-0.2,1.6-0.6,2.2-1.2c0.6-0.6,1.2-1.4,1.8-2.4c0.6-1,1.2-2.4,2-4.2l14.7-34.7c0.4-1,0.8-1.9,1.1-2.7c0.3-0.8,0.6-1.6,0.9-2.5
			l3.6-0.4c0.4,1.6,0.8,3.1,1.2,4.5c0.4,1.4,0.8,2.6,1.2,3.7l11.5,33.4c0.5,1.5,1,2.7,1.4,3.5c0.4,0.9,0.9,1.5,1.4,1.9
			c0.5,0.4,1.2,0.7,2.1,0.9c0.8,0.2,1.9,0.3,3.3,0.4l-0.2,1.9c-1.4,0-3,0-4.7-0.1c-1.7,0-3.6-0.1-5.6-0.1c-1.9,0-3.6,0-5.1,0.1
			c-1.5,0-2.9,0.1-4.4,0.1l-0.2-1.8c1.9-0.1,3.3-0.4,4.1-0.6c0.8-0.3,1.2-0.9,1.2-1.8c0-0.4-0.1-0.8-0.2-1.3
			c-0.1-0.5-0.3-1.1-0.5-1.7L489.9,624.2z M474.8,621.1h14.1l-6.4-19.3L474.8,621.1z"/>
		<linearGradient id="SVGID_30_" gradientUnits="userSpaceOnUse" x1="509.0273" y1="616.1435" x2="526.5102" y2="616.1435">
			<stop  offset="0" style="stop-color:#2E3D4C"/>
			<stop  offset="1" style="stop-color:#030407"/>
		</linearGradient>
		<path class="st39" d="M521.7,590.4c-0.1,0.9-0.3,1.9-0.4,3c-0.1,1.1-0.2,2.3-0.2,3.5c-0.1,1.2-0.1,2.3-0.1,3.3c0,1,0,1.8,0,2.5
			v33.7c0,0.8,0.1,1.5,0.2,2c0.1,0.5,0.3,0.9,0.7,1.2c0.4,0.3,0.9,0.5,1.6,0.6s1.7,0.2,3,0.3l-0.1,2c-1.1,0-2.4,0-3.9-0.1
			c-1.5,0-3.3-0.1-5.3-0.1c-1.7,0-3.2,0-4.5,0.1c-1.3,0-2.4,0.1-3.4,0.1l-0.2-1.7c1.2-0.1,2.1-0.2,2.8-0.4c0.7-0.2,1.2-0.5,1.6-0.9
			c0.4-0.4,0.6-1.1,0.7-1.8c0.1-0.8,0.2-1.8,0.2-3.1v-35c0-1-0.1-1.8-0.2-2.3c-0.1-0.6-0.3-1-0.7-1.3c-0.4-0.3-0.9-0.5-1.6-0.7
			c-0.7-0.2-1.6-0.4-2.8-0.6l-0.2-1.6c1-0.2,2.1-0.4,3.2-0.7c1.1-0.2,2.2-0.5,3.4-0.8c1.2-0.3,2.3-0.5,3.3-0.7
			c1-0.2,1.8-0.4,2.3-0.6L521.7,590.4z"/>
		<linearGradient id="SVGID_31_" gradientUnits="userSpaceOnUse" x1="528.0995" y1="616.1435" x2="565.5263" y2="616.1435">
			<stop  offset="0" style="stop-color:#2E3D4C"/>
			<stop  offset="1" style="stop-color:#030407"/>
		</linearGradient>
		<path class="st40" d="M540.8,590.4c-0.1,0.9-0.3,1.9-0.4,3c-0.1,1.2-0.2,2.3-0.2,3.5c-0.1,1.2-0.1,2.3-0.1,3.3c0,1,0,1.8,0,2.5
			v13.5c1.7-1.2,3.5-2.2,5.3-2.9c1.8-0.8,3.7-1.1,5.7-1.1c1.5,0,2.8,0.2,3.8,0.6c1.1,0.4,2.1,1,2.9,1.8c0.8,0.8,1.5,1.9,1.9,3.3
			c0.5,1.4,0.7,3,0.7,4.9v13.7c0,0.8,0,1.5,0.1,2c0.1,0.5,0.3,0.9,0.6,1.2c0.3,0.3,0.9,0.5,1.5,0.6c0.7,0.1,1.6,0.2,2.8,0.3l-0.1,2
			c-1.1,0-2.4,0-3.8-0.1c-1.4,0-3.1-0.1-4.9-0.1c-1.8,0-3.3,0-4.5,0.1c-1.2,0-2.3,0.1-3.2,0.1l-0.2-1.7c1.1-0.1,1.9-0.2,2.6-0.4
			c0.7-0.2,1.2-0.5,1.5-0.8c0.4-0.4,0.6-1,0.7-1.7c0.1-0.7,0.2-1.8,0.2-3.1v-10.5c0-2.8-0.6-4.8-1.7-5.9c-1.1-1.2-2.5-1.8-4.2-1.8
			c-1.4,0-2.6,0.2-3.8,0.6c-1.2,0.4-2.5,1.1-4,2v17.4c0,0.8,0.1,1.5,0.2,2c0.1,0.5,0.3,0.9,0.7,1.2c0.3,0.3,0.8,0.5,1.5,0.6
			c0.7,0.1,1.6,0.2,2.7,0.3l-0.2,2c-1.1,0-2.3,0-3.7-0.1c-1.4,0-3.1-0.1-5.2-0.1c-1.6,0-3,0-4.3,0.1c-1.3,0-2.4,0.1-3.3,0.1
			l-0.1-1.7c1.1-0.1,2-0.3,2.7-0.5c0.7-0.2,1.2-0.5,1.6-0.9c0.4-0.4,0.6-1,0.7-1.8c0.1-0.8,0.2-1.8,0.2-3.1v-34.9
			c0-1-0.1-1.8-0.2-2.3c-0.1-0.6-0.4-1-0.7-1.3c-0.4-0.3-0.9-0.5-1.6-0.7c-0.7-0.2-1.7-0.4-2.8-0.6l-0.2-1.6c1-0.2,2-0.4,3.1-0.6
			c1.1-0.2,2.2-0.5,3.3-0.7c1.1-0.3,2.2-0.5,3.3-0.8c1.1-0.3,1.9-0.5,2.5-0.7L540.8,590.4z"/>
		<linearGradient id="SVGID_32_" gradientUnits="userSpaceOnUse" x1="568.8076" y1="627.7045" x2="598.4413" y2="627.7045">
			<stop  offset="0" style="stop-color:#2E3D4C"/>
			<stop  offset="1" style="stop-color:#030407"/>
		</linearGradient>
		<path class="st41" d="M585.9,625.8c0-0.2,0.1-0.5,0.1-0.9v-3.5c0-1.7-0.4-3.2-1.3-4.3c-0.8-1.1-1.9-1.7-3.3-1.7
			c-0.8,0-1.5,0.2-2.2,0.5c-0.7,0.4-1.3,0.8-1.7,1.4c-0.5,0.6-0.8,1.2-1,2c-0.2,0.8-0.3,1.5-0.3,2.4c-0.5,0.4-1.4,0.7-2.6,0.7
			c-0.8,0-1.5-0.2-2.2-0.6c-0.7-0.4-1.1-1-1.1-1.7c0-0.5,0.2-1.1,0.6-1.7c0.4-0.6,1-1.2,1.7-1.7c0.7-0.6,1.5-1.1,2.3-1.6
			c0.9-0.5,1.7-1,2.6-1.3c2.3-1,4.5-1.5,6.8-1.5c1.3,0,2.5,0.1,3.4,0.4c1,0.3,1.8,0.8,2.5,1.4c0.7,0.6,1.3,1.4,1.7,2.4
			c0.4,1,0.6,2.2,0.6,3.5c0,2.1,0,4.4-0.1,7.1c-0.1,2.7-0.1,5.6-0.1,8.7c0,1.3,0.2,2.4,0.7,3.1c0.4,0.8,1.1,1.1,1.9,1.1
			s1.7-0.3,2.7-0.9l0.9,1.6c-0.8,0.8-1.8,1.4-2.9,1.8c-1.1,0.5-2.3,0.7-3.5,0.7c-1.7,0-3-0.3-4-1c-1-0.6-1.7-1.6-2-2.9
			c-0.3,0.2-0.9,0.6-1.6,1.1s-1.4,0.9-2.1,1.3c-0.7,0.4-1.6,0.7-2.6,1.1c-1.1,0.4-2.1,0.6-3,0.6c-1.4,0-2.5-0.2-3.4-0.6
			s-1.7-1-2.4-1.7c-0.7-0.7-1.2-1.5-1.5-2.4c-0.4-0.9-0.5-1.9-0.5-2.9c0-1.7,0.5-3.2,1.5-4.5c1-1.2,2.3-2.2,4-2.9
			c1.2-0.5,2.8-1,4.8-1.5C581.1,626.4,583.4,626,585.9,625.8z M585.8,636.8c0-1.4,0-2.9,0.1-4.4c0-1.5,0.1-2.9,0.1-4.4
			c-0.9,0.1-1.7,0.2-2.4,0.4c-0.7,0.2-1.4,0.4-2.2,0.6c-0.8,0.2-1.5,0.5-2.2,0.9c-0.7,0.4-1.3,0.8-1.8,1.3c-0.9,0.8-1.3,1.7-1.3,2.9
			c0,1.4,0.4,2.6,1.1,3.5c0.7,0.9,1.6,1.4,2.7,1.4c1.1,0,2.1-0.2,3.1-0.6C583.8,638.2,584.8,637.6,585.8,636.8z"/>
		<linearGradient id="SVGID_33_" gradientUnits="userSpaceOnUse" x1="597.1083" y1="629.499" x2="611.9252" y2="629.499">
			<stop  offset="0" style="stop-color:#2E3D4C"/>
			<stop  offset="1" style="stop-color:#030407"/>
		</linearGradient>
		<path class="st42" d="M611.9,612.5c-0.1,0.9-0.2,1.8-0.3,2.8c-0.1,1-0.1,2-0.2,2.9c-0.1,1-0.1,1.9-0.1,2.7c0,0.9,0,1.6,0,2.2v10
			c0,1.7,0,3.4,0,4.8c0,1.5,0,2.7,0,3.8v2.1c0,1.5-0.1,3-0.4,4.4c-0.3,1.4-0.6,2.6-1,3.7c-0.8,1.9-2.2,3.9-4.3,5.8
			c-2.1,1.9-4.5,3.7-7,5.2l-1.5-2.1c2.1-1.4,3.6-2.9,4.6-4.4c1-1.5,1.7-3.2,2.2-5c0.5-1.8,0.8-3.7,0.8-5.7c0.1-2,0.1-4.2,0.1-6.6
			V621c0-1-0.1-1.7-0.2-2.3c-0.1-0.5-0.3-1-0.6-1.3c-0.3-0.3-0.8-0.5-1.4-0.7c-0.6-0.2-1.5-0.3-2.5-0.5l-0.2-1.6
			c1.1-0.2,2.1-0.4,3.2-0.6c1.1-0.2,2.3-0.5,3.6-0.7c1.3-0.2,2.3-0.5,3.1-0.7c0.7-0.2,1.3-0.4,1.7-0.6L611.9,612.5z M604.2,599.8
			c0-1.1,0.3-2,1-2.7c0.7-0.7,1.6-1.1,2.7-1.1c1.2,0,2.1,0.4,2.8,1.1c0.7,0.7,1.1,1.6,1.1,2.7s-0.4,2-1.1,2.7
			c-0.7,0.7-1.6,1.1-2.8,1.1c-1.1,0-2-0.3-2.7-1.1C604.6,601.8,604.2,600.9,604.2,599.8z"/>
		<linearGradient id="SVGID_34_" gradientUnits="userSpaceOnUse" x1="615.0014" y1="629.499" x2="629.8183" y2="629.499">
			<stop  offset="0" style="stop-color:#2E3D4C"/>
			<stop  offset="1" style="stop-color:#030407"/>
		</linearGradient>
		<path class="st43" d="M629.8,612.5c-0.1,0.9-0.2,1.8-0.3,2.8c-0.1,1-0.1,2-0.2,2.9c-0.1,1-0.1,1.9-0.1,2.7c0,0.9,0,1.6,0,2.2v10
			c0,1.7,0,3.4,0,4.8c0,1.5,0,2.7,0,3.8v2.1c0,1.5-0.1,3-0.4,4.4c-0.3,1.4-0.6,2.6-1,3.7c-0.8,1.9-2.2,3.9-4.3,5.8
			c-2.1,1.9-4.5,3.7-7,5.2L615,661c2.1-1.4,3.6-2.9,4.6-4.4c1-1.5,1.7-3.2,2.2-5c0.5-1.8,0.8-3.7,0.8-5.7c0.1-2,0.1-4.2,0.1-6.6V621
			c0-1-0.1-1.7-0.2-2.3c-0.1-0.5-0.3-1-0.6-1.3c-0.3-0.3-0.8-0.5-1.4-0.7c-0.6-0.2-1.5-0.3-2.5-0.5l-0.2-1.6
			c1.1-0.2,2.1-0.4,3.2-0.6c1.1-0.2,2.3-0.5,3.6-0.7c1.3-0.2,2.3-0.5,3.1-0.7c0.7-0.2,1.3-0.4,1.7-0.6L629.8,612.5z M622.1,599.8
			c0-1.1,0.3-2,1-2.7c0.7-0.7,1.6-1.1,2.7-1.1c1.2,0,2.1,0.4,2.8,1.1c0.7,0.7,1.1,1.6,1.1,2.7s-0.4,2-1.1,2.7
			c-0.7,0.7-1.6,1.1-2.8,1.1c-1.1,0-2-0.3-2.7-1.1C622.5,601.8,622.1,600.9,622.1,599.8z"/>
		<linearGradient id="SVGID_35_" gradientUnits="userSpaceOnUse" x1="650.0698" y1="617.707" x2="693.8027" y2="617.707">
			<stop  offset="0" style="stop-color:#2E3D4C"/>
			<stop  offset="1" style="stop-color:#030407"/>
		</linearGradient>
		<path class="st44" d="M671.9,593.2c1.5,0,3.1,0,4.7,0c1.6,0,3.4,0,5.2,0c1.9,0,3.8,0,5.8,0c2,0,4.1,0,6.2,0
			c-0.1,1.3-0.2,2.4-0.3,3.4c-0.1,1-0.2,2-0.2,3c-0.1,1-0.1,2-0.1,2.9c0,1,0,2.1,0,3.2l-2.2,0.1c-0.3-1.8-0.6-3.4-1-4.7
			c-0.4-1.3-0.9-2.3-1.6-3.1c-0.7-0.8-1.6-1.4-2.8-1.7c-1.2-0.3-2.7-0.5-4.6-0.5h-5.7v40c0,0.8,0.1,1.5,0.2,2.1
			c0.1,0.5,0.4,1,0.9,1.4c0.5,0.4,1.2,0.6,2.2,0.8c1,0.2,2.3,0.3,4,0.4l-0.1,1.9c-0.7,0-1.5,0-2.4,0c-0.9,0-1.8,0-2.8,0
			c-1,0-2,0-3.1,0c-1.1,0-2.1,0-2.9,0c-1.1,0-2,0-2.8,0c-0.8,0-1.6,0-2.4,0s-1.6,0-2.5,0c-0.8,0-1.6,0-2.2,0l-0.2-1.8
			c1.6-0.1,2.8-0.3,3.8-0.5c1-0.2,1.7-0.5,2.2-1c0.5-0.5,0.8-1.1,0.9-1.9c0.2-0.8,0.2-1.9,0.2-3.2v-38.1h-5.6
			c-1.9,0-3.5,0.2-4.6,0.5c-1.2,0.3-2.1,0.9-2.8,1.7c-0.7,0.8-1.3,1.8-1.6,3.1c-0.4,1.3-0.7,2.8-1,4.7l-2.2-0.1v-3.2
			c0-1.5,0-3-0.1-4.4c-0.1-1.4-0.2-3-0.3-4.9c2.1,0,4.2,0,6.2,0c2,0,3.9,0,5.7,0s3.6,0,5.2,0C668.7,593.2,670.3,593.2,671.9,593.2z"
			/>
		<linearGradient id="SVGID_36_" gradientUnits="userSpaceOnUse" x1="696.1611" y1="627.1918" x2="720.9243" y2="627.1918">
			<stop  offset="0" style="stop-color:#2E3D4C"/>
			<stop  offset="1" style="stop-color:#030407"/>
		</linearGradient>
		<path class="st45" d="M714.3,642.3c-0.5,0-1.2,0-2,0c-0.8,0-1.6,0-2.5,0c-0.9,0-1.8,0-2.7,0c-0.9,0-1.8,0-2.6,0
			c-2.1,0-3.7,0-4.9,0.1s-2.3,0.1-3.3,0.1l-0.2-1.7c1.1-0.1,2-0.2,2.7-0.4c0.7-0.2,1.2-0.5,1.5-0.9c0.4-0.4,0.6-1.1,0.7-1.8
			c0.1-0.8,0.2-1.8,0.2-3.1v-13.1c0-1-0.1-1.7-0.2-2.3c-0.1-0.5-0.3-1-0.6-1.3c-0.3-0.3-0.8-0.6-1.5-0.7c-0.6-0.2-1.5-0.3-2.6-0.5
			l-0.2-1.5c0.9-0.2,1.9-0.4,2.9-0.6c1-0.2,2.1-0.5,3.4-0.7c1.3-0.3,2.3-0.5,3.1-0.8c0.8-0.2,1.5-0.5,2-0.7l0.6,0.4
			c-0.2,1.1-0.3,2.1-0.3,3.2c0,1-0.1,2.1-0.1,3.1c1.1-1.3,2.1-2.4,3-3.3c0.9-0.9,1.7-1.6,2.5-2.1c0.8-0.5,1.4-0.8,2.1-1
			c0.6-0.2,1.3-0.3,1.9-0.3c0.9,0,1.7,0.2,2.5,0.7c0.8,0.4,1.1,1.2,1.1,2.2c0,0.7-0.3,1.5-1,2.4c-0.7,0.9-1.6,1.7-2.7,2.4
			c-0.6-0.5-1.3-1-1.9-1.3c-0.7-0.3-1.4-0.4-2.2-0.4c-0.8,0-1.6,0.3-2.6,1c-0.9,0.7-1.7,1.7-2.3,3c-0.2,0.4-0.3,0.7-0.3,1
			c0,0.3-0.1,0.7-0.1,1.2v12.3c0,0.8,0.1,1.5,0.2,2c0.1,0.5,0.4,0.9,0.8,1.2c0.4,0.3,1.1,0.5,1.9,0.6c0.9,0.1,2,0.2,3.5,0.3
			L714.3,642.3z"/>
		<linearGradient id="SVGID_37_" gradientUnits="userSpaceOnUse" x1="723.0263" y1="627.7045" x2="752.6611" y2="627.7045">
			<stop  offset="0" style="stop-color:#2E3D4C"/>
			<stop  offset="1" style="stop-color:#030407"/>
		</linearGradient>
		<path class="st46" d="M740.1,625.8c0-0.2,0.1-0.5,0.1-0.9v-3.5c0-1.7-0.4-3.2-1.3-4.3c-0.8-1.1-1.9-1.7-3.3-1.7
			c-0.8,0-1.5,0.2-2.2,0.5c-0.7,0.4-1.3,0.8-1.7,1.4c-0.5,0.6-0.8,1.2-1,2c-0.2,0.8-0.3,1.5-0.3,2.4c-0.5,0.4-1.4,0.7-2.6,0.7
			c-0.8,0-1.5-0.2-2.2-0.6c-0.7-0.4-1.1-1-1.1-1.7c0-0.5,0.2-1.1,0.6-1.7c0.4-0.6,1-1.2,1.7-1.7c0.7-0.6,1.5-1.1,2.3-1.6
			c0.9-0.5,1.7-1,2.6-1.3c2.3-1,4.5-1.5,6.8-1.5c1.3,0,2.5,0.1,3.4,0.4c1,0.3,1.8,0.8,2.5,1.4c0.7,0.6,1.3,1.4,1.7,2.4
			c0.4,1,0.6,2.2,0.6,3.5c0,2.1,0,4.4-0.1,7.1c-0.1,2.7-0.1,5.6-0.1,8.7c0,1.3,0.2,2.4,0.7,3.1c0.4,0.8,1.1,1.1,1.9,1.1
			s1.7-0.3,2.7-0.9l0.9,1.6c-0.8,0.8-1.8,1.4-2.9,1.8s-2.3,0.7-3.5,0.7c-1.7,0-3-0.3-4-1c-1-0.6-1.7-1.6-2-2.9
			c-0.3,0.2-0.9,0.6-1.6,1.1s-1.4,0.9-2.1,1.3c-0.7,0.4-1.6,0.7-2.6,1.1c-1.1,0.4-2.1,0.6-3,0.6c-1.4,0-2.5-0.2-3.4-0.6
			s-1.7-1-2.4-1.7c-0.7-0.7-1.2-1.5-1.5-2.4c-0.4-0.9-0.5-1.9-0.5-2.9c0-1.7,0.5-3.2,1.5-4.5c1-1.2,2.3-2.2,4-2.9
			c1.2-0.5,2.8-1,4.8-1.5C735.3,626.4,737.6,626,740.1,625.8z M740,636.8c0-1.4,0-2.9,0.1-4.4c0-1.5,0.1-2.9,0.1-4.4
			c-0.9,0.1-1.7,0.2-2.4,0.4c-0.7,0.2-1.4,0.4-2.2,0.6c-0.8,0.2-1.5,0.5-2.2,0.9c-0.7,0.4-1.3,0.8-1.8,1.3c-0.9,0.8-1.3,1.7-1.3,2.9
			c0,1.4,0.4,2.6,1.1,3.5c0.7,0.9,1.6,1.4,2.7,1.4c1.1,0,2.1-0.2,3.1-0.6C738,638.2,739,637.6,740,636.8z"/>
		<linearGradient id="SVGID_38_" gradientUnits="userSpaceOnUse" x1="751.3271" y1="628.166" x2="786.8578" y2="628.166">
			<stop  offset="0" style="stop-color:#2E3D4C"/>
			<stop  offset="1" style="stop-color:#030407"/>
		</linearGradient>
		<path class="st47" d="M767.3,643.3c-1.5-4.1-3-8.1-4.6-11.9c-1.6-3.8-3.2-7.7-4.8-11.5c-0.4-1-0.8-1.8-1.2-2.4
			c-0.4-0.6-0.8-1.1-1.2-1.4c-0.5-0.3-1-0.6-1.6-0.7c-0.6-0.1-1.4-0.2-2.4-0.3l0.1-2c1.1,0,2.4,0,3.8,0.1c1.4,0,3,0.1,4.8,0.1
			c1.8,0,3.3,0,4.4-0.1c1.1,0,2.2-0.1,3.2-0.1l0.1,1.8c-1.4,0.2-2.3,0.4-2.9,0.6c-0.5,0.2-0.8,0.6-0.8,1.1c0,0.3,0.1,0.6,0.2,1
			c0.1,0.4,0.3,0.8,0.4,1.3l6.2,15.4l6.5-15.5c0.2-0.4,0.3-0.8,0.4-1.2c0.1-0.4,0.2-0.7,0.2-0.9c0-0.5-0.3-1-0.9-1.2
			c-0.6-0.3-1.7-0.4-3.2-0.5l0.1-1.8c1.1,0,2.1,0,3.1,0.1c1,0,2.4,0.1,4,0.1c1.2,0,2.2,0,3.2-0.1c0.9,0,1.8-0.1,2.6-0.1l0.1,1.7
			c-1,0.1-1.8,0.3-2.5,0.5c-0.6,0.2-1.2,0.4-1.6,0.7c-0.5,0.3-0.9,0.8-1.3,1.4c-0.4,0.6-0.8,1.4-1.3,2.5c-0.6,1.2-1.3,2.6-2.1,4.3
			c-0.8,1.6-1.6,3.5-2.5,5.4c-0.9,2-1.8,4.1-2.7,6.4c-1,2.3-1.9,4.7-2.9,7.1L767.3,643.3z"/>
		<linearGradient id="SVGID_39_" gradientUnits="userSpaceOnUse" x1="787.6264" y1="627.7045" x2="814.6967" y2="627.7045">
			<stop  offset="0" style="stop-color:#2E3D4C"/>
			<stop  offset="1" style="stop-color:#030407"/>
		</linearGradient>
		<path class="st48" d="M814.5,636.5c-1.2,1.5-2.4,2.7-3.5,3.6c-1.2,0.9-2.3,1.5-3.3,2c-1.1,0.5-2,0.8-2.9,1
			c-0.9,0.2-1.7,0.3-2.3,0.3c-2.4,0-4.4-0.4-6.2-1.2c-1.8-0.8-3.3-1.9-4.6-3.2c-1.3-1.4-2.3-3-3-4.8c-0.7-1.8-1.1-3.8-1.1-5.8
			c0-2.3,0.4-4.4,1.3-6.4c0.8-2,1.9-3.7,3.3-5.2c1.4-1.5,3-2.6,4.8-3.5c1.8-0.8,3.8-1.3,5.9-1.3c1.8,0,3.4,0.2,4.7,0.7
			c1.4,0.5,2.6,1.2,3.6,2.1s1.8,2,2.5,3.3s0.9,2.8,0.9,4.4v0.7l-0.1,0.7c-0.2,0.9-0.6,1.4-1.4,1.4h-19c0,2.4,0.4,4.4,1,6
			c0.6,1.6,1.5,3,2.6,4c1.1,1,2.3,1.8,3.6,2.3c1.3,0.5,2.6,0.7,3.8,0.7c1.3,0,2.5-0.2,3.8-0.7s2.6-1.4,4-2.8L814.5,636.5z
			 M805.9,623.1c0.7,0,1.1-0.1,1.3-0.4c0.2-0.3,0.3-0.7,0.3-1.3c0-0.9-0.1-1.8-0.4-2.6s-0.7-1.5-1.3-2.1c-0.6-0.6-1.2-1-1.9-1.4
			c-0.7-0.3-1.6-0.5-2.5-0.5c-0.8,0-1.5,0.2-2.3,0.6c-0.8,0.4-1.5,0.9-2.1,1.6c-0.6,0.7-1.2,1.5-1.6,2.5c-0.5,1-0.8,2.2-0.9,3.5
			H805.9z"/>
		<linearGradient id="SVGID_40_" gradientUnits="userSpaceOnUse" x1="817.2612" y1="616.1435" x2="834.7436" y2="616.1435">
			<stop  offset="0" style="stop-color:#2E3D4C"/>
			<stop  offset="1" style="stop-color:#030407"/>
		</linearGradient>
		<path class="st49" d="M830,590.4c-0.1,0.9-0.3,1.9-0.4,3c-0.1,1.1-0.2,2.3-0.2,3.5c-0.1,1.2-0.1,2.3-0.1,3.3c0,1,0,1.8,0,2.5v33.7
			c0,0.8,0.1,1.5,0.2,2c0.1,0.5,0.3,0.9,0.7,1.2c0.4,0.3,0.9,0.5,1.6,0.6s1.7,0.2,3,0.3l-0.1,2c-1.1,0-2.4,0-3.9-0.1
			c-1.5,0-3.3-0.1-5.3-0.1c-1.7,0-3.2,0-4.5,0.1c-1.3,0-2.4,0.1-3.4,0.1l-0.2-1.7c1.2-0.1,2.1-0.2,2.8-0.4c0.7-0.2,1.2-0.5,1.6-0.9
			c0.4-0.4,0.6-1.1,0.7-1.8c0.1-0.8,0.2-1.8,0.2-3.1v-35c0-1-0.1-1.8-0.2-2.3c-0.1-0.6-0.3-1-0.7-1.3c-0.4-0.3-0.9-0.5-1.6-0.7
			c-0.7-0.2-1.6-0.4-2.8-0.6l-0.2-1.6c1-0.2,2.1-0.4,3.2-0.7c1.1-0.2,2.2-0.5,3.4-0.8c1.2-0.3,2.3-0.5,3.3-0.7
			c1-0.2,1.8-0.4,2.3-0.6L830,590.4z"/>
	</g>
	<defs>
		<filter id="Adobe_OpacityMaskFilter_4_" filterUnits="userSpaceOnUse" x="510.4" y="382" width="46.7" height="131.8">
			<feColorMatrix  type="matrix" values="1 0 0 0 0  0 1 0 0 0  0 0 1 0 0  0 0 0 1 0"/>
		</filter>
	</defs>
	<mask maskUnits="userSpaceOnUse" x="510.4" y="382" width="46.7" height="131.8" id="XMLID_69_">
		<g id="XMLID_2_" class="st50">
			<defs>
				<filter id="Adobe_OpacityMaskFilter_5_" filterUnits="userSpaceOnUse" x="508.9" y="381.7" width="50.7" height="135">
					<feFlood  style="flood-color:white;flood-opacity:1" result="back"/>
					<feBlend  in="SourceGraphic" in2="back" mode="normal"/>
				</filter>
			</defs>
			<mask maskUnits="userSpaceOnUse" x="508.9" y="381.7" width="50.7" height="135" id="XMLID_69_">
				<g id="XMLID_16_" class="st51">
				</g>
			</mask>
			
				<linearGradient id="XMLID_70_" gradientUnits="userSpaceOnUse" x1="532.9055" y1="495.1736" x2="532.9055" y2="420.0104" gradientTransform="matrix(-0.9686 0.2486 -0.4461 -1.7377 1254.5383 1111.8281)">
				<stop  offset="0" style="stop-color:#ACACAC"/>
				<stop  offset="0.9916" style="stop-color:#000000"/>
			</linearGradient>
			<polygon id="XMLID_6_" class="st52" points="508.9,386.1 526,381.7 559.6,512.3 542.4,516.7 			"/>
		</g>
	</mask>
	<g id="XMLID_1150_">
		<defs>
			<filter id="Adobe_OpacityMaskFilter_6_" filterUnits="userSpaceOnUse" x="510.4" y="382" width="46.7" height="131.8">
				<feFlood  style="flood-color:white;flood-opacity:1" result="back"/>
				<feBlend  in="SourceGraphic" in2="back" mode="normal"/>
			</filter>
		</defs>
		<mask maskUnits="userSpaceOnUse" x="510.4" y="382" width="46.7" height="131.8" id="XMLID_71_">
			<g id="XMLID_9_" class="st53">
				<defs>
					<filter id="Adobe_OpacityMaskFilter_7_" filterUnits="userSpaceOnUse" x="508.9" y="381.7" width="50.7" height="135">
						<feFlood  style="flood-color:white;flood-opacity:1" result="back"/>
						<feBlend  in="SourceGraphic" in2="back" mode="normal"/>
					</filter>
				</defs>
				<mask maskUnits="userSpaceOnUse" x="508.9" y="381.7" width="50.7" height="135" id="XMLID_71_">
					<g id="XMLID_20_" class="st54">
					</g>
				</mask>
				
					<linearGradient id="XMLID_72_" gradientUnits="userSpaceOnUse" x1="532.9055" y1="495.1736" x2="532.9055" y2="420.0104" gradientTransform="matrix(-0.9686 0.2486 -0.4461 -1.7377 1254.5383 1111.8281)">
					<stop  offset="0" style="stop-color:#FFFFFF"/>
					<stop  offset="0.9916" style="stop-color:#000000"/>
				</linearGradient>
				<polygon id="XMLID_12_" class="st55" points="508.9,386.1 526,381.7 559.6,512.3 542.4,516.7 				"/>
			</g>
		</mask>
		
			<linearGradient id="XMLID_73_" gradientUnits="userSpaceOnUse" x1="534.7882" y1="495.7089" x2="534.7882" y2="420.2104" gradientTransform="matrix(-0.9686 0.2486 -0.4461 -1.7377 1254.5383 1111.8281)">
			<stop  offset="0" style="stop-color:#D9A037"/>
			<stop  offset="0.9916" style="stop-color:#ECB84B"/>
		</linearGradient>
		<path id="XMLID_76_" class="st56" d="M511.8,384.3l11.8-2.3c0.7-0.1,1.4,0.2,1.6,0.8l31.9,128.6c0.2,0.6-0.4,1.3-1.2,1.5
			l-15.4,0.9c-0.8,0.2-1.6-0.1-1.8-0.7l-28.3-127.1C510.2,385.2,510.9,384.5,511.8,384.3z"/>
	</g>
	<defs>
		<filter id="Adobe_OpacityMaskFilter_8_" filterUnits="userSpaceOnUse" x="683.1" y="357.7" width="47.7" height="70.2">
			<feColorMatrix  type="matrix" values="1 0 0 0 0  0 1 0 0 0  0 0 1 0 0  0 0 0 1 0"/>
		</filter>
	</defs>
	<mask maskUnits="userSpaceOnUse" x="683.1" y="357.7" width="47.7" height="70.2" id="XMLID_74_">
		<g id="XMLID_37_" class="st57">
			<defs>
				<filter id="Adobe_OpacityMaskFilter_9_" filterUnits="userSpaceOnUse" x="681.8" y="356.2" width="54.7" height="72.8">
					<feFlood  style="flood-color:white;flood-opacity:1" result="back"/>
					<feBlend  in="SourceGraphic" in2="back" mode="normal"/>
				</filter>
			</defs>
			<mask maskUnits="userSpaceOnUse" x="681.8" y="356.2" width="54.7" height="72.8" id="XMLID_74_">
				<g id="XMLID_38_" class="st58">
				</g>
			</mask>
			
				<linearGradient id="XMLID_75_" gradientUnits="userSpaceOnUse" x1="341.9962" y1="526.8223" x2="341.9962" y2="451.6592" gradientTransform="matrix(-0.8479 0.5301 -0.5277 -0.844 1257.2737 624.2326)">
				<stop  offset="0" style="stop-color:#ACACAC"/>
				<stop  offset="0.9916" style="stop-color:#000000"/>
			</linearGradient>
			<polygon id="XMLID_39_" class="st59" points="681.8,365.6 696.8,356.2 736.5,419.6 721.5,429 			"/>
		</g>
	</mask>
	<g id="XMLID_40_">
		<defs>
			<filter id="Adobe_OpacityMaskFilter_10_" filterUnits="userSpaceOnUse" x="683.1" y="357.7" width="47.7" height="70.2">
				<feFlood  style="flood-color:white;flood-opacity:1" result="back"/>
				<feBlend  in="SourceGraphic" in2="back" mode="normal"/>
			</filter>
		</defs>
		<mask maskUnits="userSpaceOnUse" x="683.1" y="357.7" width="47.7" height="70.2" id="XMLID_77_">
			<g id="XMLID_41_" class="st60">
				<defs>
					<filter id="Adobe_OpacityMaskFilter_11_" filterUnits="userSpaceOnUse" x="681.8" y="356.2" width="54.7" height="72.8">
						<feFlood  style="flood-color:white;flood-opacity:1" result="back"/>
						<feBlend  in="SourceGraphic" in2="back" mode="normal"/>
					</filter>
				</defs>
				<mask maskUnits="userSpaceOnUse" x="681.8" y="356.2" width="54.7" height="72.8" id="XMLID_77_">
					<g id="XMLID_42_" class="st61">
					</g>
				</mask>
				
					<linearGradient id="XMLID_78_" gradientUnits="userSpaceOnUse" x1="341.9962" y1="526.8223" x2="341.9962" y2="451.6592" gradientTransform="matrix(-0.8479 0.5301 -0.5277 -0.844 1257.2737 624.2326)">
					<stop  offset="0" style="stop-color:#FFFFFF"/>
					<stop  offset="0.9916" style="stop-color:#000000"/>
				</linearGradient>
				<polygon id="XMLID_43_" class="st62" points="681.8,365.6 696.8,356.2 736.5,419.6 721.5,429 				"/>
			</g>
		</mask>
		
			<linearGradient id="XMLID_79_" gradientUnits="userSpaceOnUse" x1="344.2249" y1="528.6872" x2="344.2249" y2="452.3207" gradientTransform="matrix(-0.8479 0.5301 -0.5277 -0.844 1257.2737 624.2326)">
			<stop  offset="0" style="stop-color:#D7A036"/>
			<stop  offset="0.5058" style="stop-color:#B3762E"/>
			<stop  offset="1" style="stop-color:#C38722"/>
		</linearGradient>
		<path id="XMLID_44_" class="st63" d="M683.1,364.8l6-4.1c0.4,0,0.7-0.2,0.9-0.3c0.7-0.5,1.1-1.5,0.9-2.6
			c7.4,7.6,16,17.9,24.1,31.1c7.4,12.1,12.4,23.5,15.8,32.9c0,0.1,0,0.4-0.1,0.6c-0.2,0.2-0.5,0.5-0.8,0.7l-5.8,2.6
			c-0.3,0.1-0.7,0.3-1,0.4c-1.8,0.7-3.6,1.4-5.3,1.9c-1.6-8.2-4.6-19.2-10.7-31.1C699.3,381.8,689.9,371.3,683.1,364.8z"/>
	</g>
	<defs>
		<filter id="Adobe_OpacityMaskFilter_12_" filterUnits="userSpaceOnUse" x="529.8" y="401.1" width="48.9" height="65.7">
			<feColorMatrix  type="matrix" values="1 0 0 0 0  0 1 0 0 0  0 0 1 0 0  0 0 0 1 0"/>
		</filter>
	</defs>
	<mask maskUnits="userSpaceOnUse" x="529.8" y="401.1" width="48.9" height="65.7" id="XMLID_80_">
		<g id="XMLID_53_" class="st64">
			<defs>
				<filter id="Adobe_OpacityMaskFilter_13_" filterUnits="userSpaceOnUse" x="524.1" y="398.1" width="54.7" height="72.8">
					<feFlood  style="flood-color:white;flood-opacity:1" result="back"/>
					<feBlend  in="SourceGraphic" in2="back" mode="normal"/>
				</filter>
			</defs>
			<mask maskUnits="userSpaceOnUse" x="524.1" y="398.1" width="54.7" height="72.8" id="XMLID_80_">
				<g id="XMLID_54_" class="st65">
				</g>
			</mask>
			
				<linearGradient id="XMLID_81_" gradientUnits="userSpaceOnUse" x1="500.659" y1="577.3622" x2="500.659" y2="502.199" gradientTransform="matrix(0.8479 -0.5301 0.5277 0.844 -157.9104 244.313)">
				<stop  offset="0" style="stop-color:#ACACAC"/>
				<stop  offset="0.9916" style="stop-color:#000000"/>
			</linearGradient>
			<polygon id="XMLID_55_" class="st66" points="578.8,461.5 563.8,470.9 524.1,407.5 539.1,398.1 			"/>
		</g>
	</mask>
	<g id="XMLID_56_">
		<defs>
			<filter id="Adobe_OpacityMaskFilter_14_" filterUnits="userSpaceOnUse" x="529.8" y="401.1" width="48.9" height="65.7">
				<feFlood  style="flood-color:white;flood-opacity:1" result="back"/>
				<feBlend  in="SourceGraphic" in2="back" mode="normal"/>
			</filter>
		</defs>
		<mask maskUnits="userSpaceOnUse" x="529.8" y="401.1" width="48.9" height="65.7" id="XMLID_82_">
			<g id="XMLID_57_" class="st67">
				<defs>
					<filter id="Adobe_OpacityMaskFilter_15_" filterUnits="userSpaceOnUse" x="524.1" y="398.1" width="54.7" height="72.8">
						<feFlood  style="flood-color:white;flood-opacity:1" result="back"/>
						<feBlend  in="SourceGraphic" in2="back" mode="normal"/>
					</filter>
				</defs>
				<mask maskUnits="userSpaceOnUse" x="524.1" y="398.1" width="54.7" height="72.8" id="XMLID_82_">
					<g id="XMLID_58_" class="st68">
					</g>
				</mask>
				
					<linearGradient id="XMLID_83_" gradientUnits="userSpaceOnUse" x1="500.659" y1="577.3622" x2="500.659" y2="502.199" gradientTransform="matrix(0.8479 -0.5301 0.5277 0.844 -157.9104 244.313)">
					<stop  offset="0" style="stop-color:#FFFFFF"/>
					<stop  offset="0.9916" style="stop-color:#000000"/>
				</linearGradient>
				<polygon id="XMLID_59_" class="st69" points="578.8,461.5 563.8,470.9 524.1,407.5 539.1,398.1 				"/>
			</g>
		</mask>
		
			<linearGradient id="XMLID_84_" gradientUnits="userSpaceOnUse" x1="501.69" y1="577.6775" x2="501.69" y2="502.8605" gradientTransform="matrix(0.8479 -0.5301 0.5277 0.844 -157.9104 244.313)">
			<stop  offset="1.065558e-07" style="stop-color:#E2AC41"/>
			<stop  offset="0.5058" style="stop-color:#B3762E"/>
			<stop  offset="1" style="stop-color:#FBCD5B"/>
		</linearGradient>
		<path id="XMLID_60_" class="st70" d="M577.5,462.3l-6,4.1c-0.7,0.4-1.3,0.4-1.4,0.2c-7.1-6.3-16.1-15.5-24.5-28.3
			c-8.1-12.4-12.9-24-15.8-32.9c0-0.1,0-0.4,0.1-0.6c0.2-0.2,0.5-0.5,0.8-0.7l5.8-2.6c0.7-0.4,1.4-0.6,1.6-0.3
			c4.4,8.9,9.9,18.8,16.7,29c8,12,16.2,22.2,23.7,30.5C578.2,461.3,577.9,461.8,577.5,462.3z"/>
	</g>
	<defs>
		<filter id="Adobe_OpacityMaskFilter_16_" filterUnits="userSpaceOnUse" x="653.8" y="461" width="70.2" height="35.3">
			<feColorMatrix  type="matrix" values="1 0 0 0 0  0 1 0 0 0  0 0 1 0 0  0 0 0 1 0"/>
		</filter>
	</defs>
	<mask maskUnits="userSpaceOnUse" x="653.8" y="461" width="70.2" height="35.3" id="XMLID_85_">
		<g id="XMLID_45_" class="st71">
			<defs>
				<filter id="Adobe_OpacityMaskFilter_17_" filterUnits="userSpaceOnUse" x="651.2" y="460.9" width="75.8" height="45.3">
					<feFlood  style="flood-color:white;flood-opacity:1" result="back"/>
					<feBlend  in="SourceGraphic" in2="back" mode="normal"/>
				</filter>
			</defs>
			<mask maskUnits="userSpaceOnUse" x="651.2" y="460.9" width="75.8" height="45.3" id="XMLID_85_">
				<g id="XMLID_46_" class="st72">
				</g>
			</mask>
			
				<linearGradient id="XMLID_86_" gradientUnits="userSpaceOnUse" x1="377.1666" y1="498.9358" x2="377.1666" y2="423.7727" gradientTransform="matrix(-0.3876 -0.9218 0.9176 -0.3858 411.9497 1009.2468)">
				<stop  offset="0" style="stop-color:#ACACAC"/>
				<stop  offset="0.9916" style="stop-color:#000000"/>
			</linearGradient>
			<polygon id="XMLID_47_" class="st73" points="720.1,460.9 727,477.2 658,506.2 651.2,489.9 			"/>
		</g>
	</mask>
	<g id="XMLID_48_">
		<defs>
			<filter id="Adobe_OpacityMaskFilter_18_" filterUnits="userSpaceOnUse" x="653.8" y="461" width="70.2" height="35.3">
				<feFlood  style="flood-color:white;flood-opacity:1" result="back"/>
				<feBlend  in="SourceGraphic" in2="back" mode="normal"/>
			</filter>
		</defs>
		<mask maskUnits="userSpaceOnUse" x="653.8" y="461" width="70.2" height="35.3" id="XMLID_87_">
			<g id="XMLID_49_" class="st74">
				<defs>
					<filter id="Adobe_OpacityMaskFilter_19_" filterUnits="userSpaceOnUse" x="651.2" y="460.9" width="75.8" height="45.3">
						<feFlood  style="flood-color:white;flood-opacity:1" result="back"/>
						<feBlend  in="SourceGraphic" in2="back" mode="normal"/>
					</filter>
				</defs>
				<mask maskUnits="userSpaceOnUse" x="651.2" y="460.9" width="75.8" height="45.3" id="XMLID_87_">
					<g id="XMLID_50_" class="st75">
					</g>
				</mask>
				
					<linearGradient id="XMLID_88_" gradientUnits="userSpaceOnUse" x1="377.1666" y1="498.9358" x2="377.1666" y2="423.7727" gradientTransform="matrix(-0.3876 -0.9218 0.9176 -0.3858 411.9497 1009.2468)">
					<stop  offset="0" style="stop-color:#FFFFFF"/>
					<stop  offset="0.9916" style="stop-color:#000000"/>
				</linearGradient>
				<polygon id="XMLID_51_" class="st76" points="720.1,460.9 727,477.2 658,506.2 651.2,489.9 				"/>
			</g>
		</mask>
		
			<linearGradient id="XMLID_89_" gradientUnits="userSpaceOnUse" x1="378.2076" y1="499.5934" x2="378.2076" y2="424.1494" gradientTransform="matrix(-0.3876 -0.9218 0.9176 -0.3858 411.9497 1009.2468)">
			<stop  offset="3.724359e-02" style="stop-color:#CB912A"/>
			<stop  offset="0.5466" style="stop-color:#FFEBBB"/>
			<stop  offset="0.9916" style="stop-color:#E4B043"/>
		</linearGradient>
		<path id="XMLID_52_" class="st77" d="M720.3,462.8c1,2,2.2,2.6,3.2,4.6c0,0,0.6,0.6,0.4,1.4c-0.2,0.7-0.7,0.9-0.8,1
			c-3.2,2.6-7.4,6.8-12.8,10.2c-2.4,1.5-10.1,6.2-18.4,9.9c-13.5,6-27.8,4.9-37,6.3c-0.1,0-0.4-0.1-0.6-0.2
			c-0.6-0.4-0.6-1.1-0.6-1.2c0-0.9,0-1.1,0-2c0.2-0.8-0.2-2.3,0.2-2.4c10.3-0.1,31.3-1.9,50.9-16c5.4-3.9,10.1-8.5,10.1-8.5
			c2-2,3.5-3.7,4.6-5C719.6,461.4,719.9,462,720.3,462.8z"/>
	</g>
	<defs>
		<filter id="Adobe_OpacityMaskFilter_20_" filterUnits="userSpaceOnUse" x="470.6" y="413.6" width="59.2" height="80.2">
			<feColorMatrix  type="matrix" values="1 0 0 0 0  0 1 0 0 0  0 0 1 0 0  0 0 0 1 0"/>
		</filter>
	</defs>
	<mask maskUnits="userSpaceOnUse" x="470.6" y="413.6" width="59.2" height="80.2" id="XMLID_90_">
		<g id="XMLID_29_" class="st78">
			<defs>
				<filter id="Adobe_OpacityMaskFilter_21_" filterUnits="userSpaceOnUse" x="469.8" y="413" width="61.5" height="82.1">
					<feFlood  style="flood-color:white;flood-opacity:1" result="back"/>
					<feBlend  in="SourceGraphic" in2="back" mode="normal"/>
				</filter>
			</defs>
			<mask maskUnits="userSpaceOnUse" x="469.8" y="413" width="61.5" height="82.1" id="XMLID_90_">
				<g id="XMLID_30_" class="st79">
				</g>
			</mask>
			
				<linearGradient id="XMLID_91_" gradientUnits="userSpaceOnUse" x1="567.1514" y1="513.7407" x2="567.1514" y2="438.5776" gradientTransform="matrix(-0.5175 0.3579 -0.6966 -1.0075 1125.8212 730.7614)">
				<stop  offset="0" style="stop-color:#ACACAC"/>
				<stop  offset="0.9916" style="stop-color:#000000"/>
			</linearGradient>
			<polygon id="XMLID_31_" class="st80" points="469.8,419.3 479,413 531.4,488.7 522.2,495 			"/>
		</g>
	</mask>
	<g id="XMLID_32_">
		<defs>
			<filter id="Adobe_OpacityMaskFilter_22_" filterUnits="userSpaceOnUse" x="470.6" y="413.6" width="59.2" height="80.2">
				<feFlood  style="flood-color:white;flood-opacity:1" result="back"/>
				<feBlend  in="SourceGraphic" in2="back" mode="normal"/>
			</filter>
		</defs>
		<mask maskUnits="userSpaceOnUse" x="470.6" y="413.6" width="59.2" height="80.2" id="XMLID_92_">
			<g id="XMLID_33_" class="st81">
				<defs>
					<filter id="Adobe_OpacityMaskFilter_23_" filterUnits="userSpaceOnUse" x="469.8" y="413" width="61.5" height="82.1">
						<feFlood  style="flood-color:white;flood-opacity:1" result="back"/>
						<feBlend  in="SourceGraphic" in2="back" mode="normal"/>
					</filter>
				</defs>
				<mask maskUnits="userSpaceOnUse" x="469.8" y="413" width="61.5" height="82.1" id="XMLID_92_">
					<g id="XMLID_34_" class="st82">
					</g>
				</mask>
				
					<linearGradient id="XMLID_93_" gradientUnits="userSpaceOnUse" x1="567.1514" y1="513.7407" x2="567.1514" y2="438.5776" gradientTransform="matrix(-0.5175 0.3579 -0.6966 -1.0075 1125.8212 730.7614)">
					<stop  offset="0" style="stop-color:#FFFFFF"/>
					<stop  offset="0.9916" style="stop-color:#000000"/>
				</linearGradient>
				<polygon id="XMLID_35_" class="st83" points="469.8,419.3 479,413 531.4,488.7 522.2,495 				"/>
			</g>
		</mask>
		
			<linearGradient id="XMLID_94_" gradientUnits="userSpaceOnUse" x1="569.0341" y1="514.2761" x2="569.0341" y2="438.7776" gradientTransform="matrix(-0.5175 0.3579 -0.6966 -1.0075 1125.8212 730.7614)">
			<stop  offset="0" style="stop-color:#C38420"/>
			<stop  offset="0.9916" style="stop-color:#B0701F"/>
		</linearGradient>
		<path id="XMLID_36_" class="st84" d="M471.1,417.6l6.5-3.9c0.4-0.2,0.9-0.2,1.1,0.2l50.9,74.8c0.2,0.4,0.1,0.9-0.3,1.2l-9,3.8
			c-0.4,0.3-1,0.3-1.2-0.1l-48.4-74.6C470.4,418.5,470.6,417.9,471.1,417.6z"/>
	</g>
	<defs>
		<filter id="Adobe_OpacityMaskFilter_24_" filterUnits="userSpaceOnUse" x="743.7" y="391.4" width="53.4" height="81">
			<feColorMatrix  type="matrix" values="1 0 0 0 0  0 1 0 0 0  0 0 1 0 0  0 0 0 1 0"/>
		</filter>
	</defs>
	<mask maskUnits="userSpaceOnUse" x="743.7" y="391.4" width="53.4" height="81" id="XMLID_95_">
		<g id="XMLID_19_" class="st85">
			<defs>
				<filter id="Adobe_OpacityMaskFilter_25_" filterUnits="userSpaceOnUse" x="740.7" y="390.4" width="57.1" height="79.8">
					<feFlood  style="flood-color:white;flood-opacity:1" result="back"/>
					<feBlend  in="SourceGraphic" in2="back" mode="normal"/>
				</filter>
			</defs>
			<mask maskUnits="userSpaceOnUse" x="740.7" y="390.4" width="57.1" height="79.8" id="XMLID_95_">
				<g id="XMLID_22_" class="st86">
				</g>
			</mask>
			
				<linearGradient id="XMLID_96_" gradientUnits="userSpaceOnUse" x1="283.4247" y1="471.6414" x2="283.4247" y2="396.4783" gradientTransform="matrix(0.324 0.2194 -0.6836 1.0094 974.1254 -70.0234)">
				<stop  offset="0" style="stop-color:#ACACAC"/>
				<stop  offset="0.9916" style="stop-color:#000000"/>
			</linearGradient>
			<polygon id="XMLID_23_" class="st87" points="746.4,470.2 740.7,466.3 792.1,390.4 797.8,394.3 			"/>
		</g>
	</mask>
	<g id="XMLID_24_">
		<defs>
			<filter id="Adobe_OpacityMaskFilter_26_" filterUnits="userSpaceOnUse" x="743.7" y="391.4" width="53.4" height="81">
				<feFlood  style="flood-color:white;flood-opacity:1" result="back"/>
				<feBlend  in="SourceGraphic" in2="back" mode="normal"/>
			</filter>
		</defs>
		<mask maskUnits="userSpaceOnUse" x="743.7" y="391.4" width="53.4" height="81" id="XMLID_97_">
			<g id="XMLID_25_" class="st88">
				<defs>
					<filter id="Adobe_OpacityMaskFilter_27_" filterUnits="userSpaceOnUse" x="740.7" y="390.4" width="57.1" height="79.8">
						<feFlood  style="flood-color:white;flood-opacity:1" result="back"/>
						<feBlend  in="SourceGraphic" in2="back" mode="normal"/>
					</filter>
				</defs>
				<mask maskUnits="userSpaceOnUse" x="740.7" y="390.4" width="57.1" height="79.8" id="XMLID_97_">
					<g id="XMLID_26_" class="st89">
					</g>
				</mask>
				
					<linearGradient id="XMLID_98_" gradientUnits="userSpaceOnUse" x1="283.4247" y1="471.6414" x2="283.4247" y2="396.4783" gradientTransform="matrix(0.324 0.2194 -0.6836 1.0094 974.1254 -70.0234)">
					<stop  offset="0" style="stop-color:#FFFFFF"/>
					<stop  offset="0.9916" style="stop-color:#000000"/>
				</linearGradient>
				<polygon id="XMLID_27_" class="st90" points="746.4,470.2 740.7,466.3 792.1,390.4 797.8,394.3 				"/>
			</g>
		</mask>
		
			<linearGradient id="XMLID_99_" gradientUnits="userSpaceOnUse" x1="290.3364" y1="471.4712" x2="290.3364" y2="396.6783" gradientTransform="matrix(0.324 0.2194 -0.6836 1.0094 974.1254 -70.0234)">
			<stop  offset="3.724945e-03" style="stop-color:#C68823"/>
			<stop  offset="0.9916" style="stop-color:#F4C353"/>
		</linearGradient>
		<path id="XMLID_28_" class="st91" d="M749.8,472.2l-5.9-4.3c-0.2-0.2-0.2-0.6,0-0.9l48.3-75.2c0.2-0.4,0.7-0.5,0.9-0.3l3.8,5
			c0.3,0.2,0.3,0.6,0.1,1l-46.2,74.5C750.5,472.3,750,472.5,749.8,472.2z"/>
	</g>
	<defs>
		<filter id="Adobe_OpacityMaskFilter_28_" filterUnits="userSpaceOnUse" x="443.9" y="376" width="26.8" height="76.3">
			<feColorMatrix  type="matrix" values="1 0 0 0 0  0 1 0 0 0  0 0 1 0 0  0 0 0 1 0"/>
		</filter>
	</defs>
	<mask maskUnits="userSpaceOnUse" x="443.9" y="376" width="26.8" height="76.3" id="XMLID_100_">
		<g id="XMLID_1_" class="st92">
			<defs>
				<filter id="Adobe_OpacityMaskFilter_29_" filterUnits="userSpaceOnUse" x="443.9" y="375.8" width="26.9" height="76.6">
					<feFlood  style="flood-color:white;flood-opacity:1" result="back"/>
					<feBlend  in="SourceGraphic" in2="back" mode="normal"/>
				</filter>
			</defs>
			<mask maskUnits="userSpaceOnUse" x="443.9" y="375.8" width="26.9" height="76.6" id="XMLID_100_">
				<g id="XMLID_4_" class="st93">
				</g>
			</mask>
			
				<linearGradient id="XMLID_101_" gradientUnits="userSpaceOnUse" x1="597.5279" y1="517.2651" x2="597.5279" y2="442.102" gradientTransform="matrix(-0.8615 0.1349 -0.1547 -0.988 1046.3414 807.414)">
				<stop  offset="0" style="stop-color:#ACACAC"/>
				<stop  offset="0.9916" style="stop-color:#000000"/>
			</linearGradient>
			<polygon id="XMLID_5_" class="st94" points="443.9,378.2 459.2,375.8 470.8,450 455.6,452.4 			"/>
		</g>
	</mask>
	<g id="XMLID_8_">
		<defs>
			<filter id="Adobe_OpacityMaskFilter_30_" filterUnits="userSpaceOnUse" x="443.9" y="376" width="26.8" height="76.3">
				<feFlood  style="flood-color:white;flood-opacity:1" result="back"/>
				<feBlend  in="SourceGraphic" in2="back" mode="normal"/>
			</filter>
		</defs>
		<mask maskUnits="userSpaceOnUse" x="443.9" y="376" width="26.8" height="76.3" id="XMLID_102_">
			<g id="XMLID_11_" class="st95">
				<defs>
					<filter id="Adobe_OpacityMaskFilter_31_" filterUnits="userSpaceOnUse" x="443.9" y="375.8" width="26.9" height="76.6">
						<feFlood  style="flood-color:white;flood-opacity:1" result="back"/>
						<feBlend  in="SourceGraphic" in2="back" mode="normal"/>
					</filter>
				</defs>
				<mask maskUnits="userSpaceOnUse" x="443.9" y="375.8" width="26.9" height="76.6" id="XMLID_102_">
					<g id="XMLID_14_" class="st96">
					</g>
				</mask>
				
					<linearGradient id="XMLID_103_" gradientUnits="userSpaceOnUse" x1="597.5279" y1="517.2651" x2="597.5279" y2="442.102" gradientTransform="matrix(-0.8615 0.1349 -0.1547 -0.988 1046.3414 807.414)">
					<stop  offset="0" style="stop-color:#FFFFFF"/>
					<stop  offset="0.9916" style="stop-color:#000000"/>
				</linearGradient>
				<polygon id="XMLID_15_" class="st97" points="443.9,378.2 459.2,375.8 470.8,450 455.6,452.4 				"/>
			</g>
		</mask>
		
			<linearGradient id="XMLID_104_" gradientUnits="userSpaceOnUse" x1="597.5325" y1="518.2208" x2="597.5325" y2="442.102" gradientTransform="matrix(-0.8615 0.1349 -0.1547 -0.988 1046.3414 807.414)">
			<stop  offset="0" style="stop-color:#B67412"/>
			<stop  offset="0.9916" style="stop-color:#FFF066"/>
		</linearGradient>
		<path id="XMLID_18_" class="st98" d="M445.3,377l11.8-1c0.7-0.1,1.2,0.1,1.2,0.4l12.4,73c0.1,0.3-0.5,0.7-1.2,0.8l-12.6,2
			c-0.7,0.1-1.4-0.1-1.4-0.4l-11.6-73.9C443.8,377.5,444.5,377.1,445.3,377z"/>
	</g>
</g>
<g id="Layer_6">
</g>
<g id="Layer_4">
	<g>
		<defs>
			<rect id="SVGID_41_" x="517.1" y="168.3" width="288" height="288"/>
		</defs>
		<clipPath id="SVGID_42_">
			<use xlink:href="#SVGID_41_"  style="display:none;overflow:visible;"/>
		</clipPath>
		<linearGradient id="SVGID_43_" gradientUnits="userSpaceOnUse" x1="731.3192" y1="295.0934" x2="525.3907" y2="257.2215">
			<stop  offset="0" style="stop-color:#AA6405"/>
			<stop  offset="0.7159" style="stop-color:#FED05E"/>
			<stop  offset="1" style="stop-color:#C38722"/>
		</linearGradient>
		<path class="st99" d="M807.6,277.7L807.6,277.7c0,4.6-4.3,8-8.8,7l-141.7-32.5c-7.4-1.7-15.1-1.7-22.5-0.1l-174.6,38.6
			c-3.7,0.8-7.2-1.7-7.8-5.4v0c-0.5-3.3,1.6-6.4,4.9-7.2l171.9-40.8c12.6-3,25.7-2.9,38.2,0.2l142,33.3
			C812.5,271.5,807.6,274.4,807.6,277.7z"/>
		<g class="st100">
			<g class="st101">
				
					<image style="overflow:visible;" width="213" height="212" xlink:href="133B580D.png"  transform="matrix(1 0 0 1 588.5532 148.2166)">
				</image>
			</g>
			
				<ellipse transform="matrix(0.7071 -0.7071 0.7071 0.7071 23.89 565.7923)" class="st102" cx="694.9" cy="254.1" rx="95.7" ry="95.7"/>
		</g>
		<linearGradient id="SVGID_44_" gradientUnits="userSpaceOnUse" x1="686.2301" y1="270.3367" x2="641.2538" y2="354.6201">
			<stop  offset="0.1495" style="stop-color:#B66D12"/>
			<stop  offset="0.4193" style="stop-color:#C8882F"/>
			<stop  offset="0.7131" style="stop-color:#DFAA53"/>
			<stop  offset="0.8081" style="stop-color:#E8BC6B"/>
			<stop  offset="1" style="stop-color:#FFE9A6"/>
		</linearGradient>
		<circle class="st103" cx="694.9" cy="254.1" r="95.7"/>
		<g class="st100">
			<g class="st101">
				
					<image style="overflow:visible;" width="213" height="212" xlink:href="133B580F.png"  transform="matrix(1 0 0 1 607.5532 144.2166)">
				</image>
			</g>
			
				<ellipse transform="matrix(0.7071 -0.7071 0.7071 0.7071 32.3418 578.2598)" class="st102" cx="714.2" cy="250.1" rx="95.7" ry="95.7"/>
		</g>
		<linearGradient id="SVGID_45_" gradientUnits="userSpaceOnUse" x1="697.4614" y1="373.8981" x2="722.0284" y2="192.1029">
			<stop  offset="0.1495" style="stop-color:#B66D12"/>
			<stop  offset="0.4193" style="stop-color:#C8882F"/>
			<stop  offset="0.7131" style="stop-color:#DFAA53"/>
			<stop  offset="0.8081" style="stop-color:#E8BC6B"/>
			<stop  offset="1" style="stop-color:#FFE9A6"/>
		</linearGradient>
		<circle class="st104" cx="714.2" cy="250.1" r="95.7"/>
		<path class="st105" d="M517.1,168.3v288h288v-288H517.1z M696.1,371.9c-52.9,0-95.7-42.9-95.7-95.7c0-52.9,42.9-95.7,95.7-95.7
			c52.9,0,95.7,42.9,95.7,95.7C791.8,329,748.9,371.9,696.1,371.9z"/>
		
			<ellipse transform="matrix(0.7071 -0.7071 0.7071 0.7071 27.7778 585.7789)" class="st105" cx="721" cy="259.4" rx="85.7" ry="85.7"/>
	</g>
</g>
<g id="Layer_7" class="st34">
	<radialGradient id="SVGID_46_" cx="633.4866" cy="344.3469" r="59.4275" gradientUnits="userSpaceOnUse">
		<stop  offset="0" style="stop-color:#FFEFC1"/>
		<stop  offset="1" style="stop-color:#FED05E"/>
	</radialGradient>
	<polygon class="st106" points="630.4,425.8 612.7,262.9 654.3,262.9 635.3,425.5 	"/>
</g>
<g id="Layer_9">
</g>
</svg>
